<?xml version="1.0" encoding="utf-8"?>
<!-- Generator: Adobe Illustrator 24.0.2, SVG Export Plug-In . SVG Version: 6.00 Build 0)  -->
<svg version="1.1" id="Layer_1" xmlns="http://www.w3.org/2000/svg" xmlns:xlink="http://www.w3.org/1999/xlink" x="0px" y="0px"
	 viewBox="0 0 114.9 36" style="enable-background:new 0 0 114.9 36;" xml:space="preserve">
<style type="text/css">
	.st0{fill:#F1F1F1;}
</style>
<g>
	<path class="st0" d="M23.52,14.97c-1.08-1.89-1.32-2.37-2.35-3.92c-0.76-1.14-2.01-1.7-3.36-1.31c-1.38,0.4-1.91,1.67-2.08,2.97
		c-0.43,3.3-0.05,6.52,1.5,9.51c0.42,0.8,1,1.58,1.67,2.18c5.31,4.12,5.23-5.04,5.23-5.04l7.36-2.4c0,0,1.77,8.69-2.79,12.2
		c-5.34,3.97-11.2,4.52-15.65,0.57c-4.99-4.44-6.45-10.06-5.68-16.5c0.42-3.5,2.1-6.19,5.07-7.91c2.57-1.49,5.49-1.79,8.46-1.56
		c2.29,0.17,4.44,0.75,6.31,2.1c2.41,1.74,2.93,3.7,3.78,6.41C31.06,12.49,25.63,14.24,23.52,14.97z"/>
	<path class="st0" d="M49.66,13.87c-0.21,3.22-1.04,10.98-1.27,13.93c-0.12,0.68-3.35,1.32-3.43,0.69
		c-0.05-2.57-0.06-12.23,0.46-12.66C46.72,14.74,49.57,13.49,49.66,13.87z"/>
	<path class="st0" d="M46.34,13.64c-1.88,0.2-2.73-0.61-2.54-2.06c0.17-1.37,0.89-2.43,2.12-3.07c0.83-0.43,1.7-0.49,2.46,0.22
		c0.64,0.59,0.85,2.04,0.34,2.96C48.12,12.79,47.74,13.45,46.34,13.64z"/>
	<path class="st0" d="M59.74,15.72c-0.86-0.33-1.42-0.54-1.97-0.77c-2.1-0.87-2.55-0.58-2.8,1.77c-0.01,0.36,2.72,0.45,2.94,0.92
		c0.34,0.7-0.23,3.66-0.72,3.56c-0.78-0.1-1.58-0.21-2.58-0.34c0.09,1.03,0.17,1.95,0.27,3.05c0.92-0.16,1.91-0.26,2.88-0.5
		c1.01-0.25,1.57,0.03,1.51,1.09c-0.08,1.46-0.22,2.93-0.44,4.38c-0.05,0.34-0.51,0.79-0.86,0.87c-2.53,0.61-4.85-0.11-7-1.4
		c-0.35-0.21-0.55-0.96-0.54-1.44c0.14-3.87,0.23-7.75,0.59-11.6c0.29-3.1,0.52-7.58,1.51-8.01c2.29-0.85,5.52,0.19,7.78,1.89
		C61.47,9.78,60.14,15.96,59.74,15.72z"/>
	<path class="st0" d="M65.74,24.53c0.08,1.34,0.18,2.68,0.23,4.02c0.06,1.37-0.46,1.85-1.84,1.75c-2.6-0.19-2.77-0.32-2.79-2.87
		c-0.04-4.51,0.37-16.32,0.63-17.71c0.05-0.26,0.34-0.65,0.56-0.69c1.07-0.16,2.16-0.32,3.23-0.28c0.98,0.03,1.32,0.87,1.5,1.71
		c0.55,2.58,2.28,9.29,2.38,9.29c0.24-2.31,0.51-4.62,0.72-6.93c0.12-1.24,0.16-2.5,0.22-3.75C70.63,8.31,71,7.81,71.75,7.7
		c1.11-0.16,2.22-0.34,3.33-0.38c1.36-0.04,1.93,0.47,1.86,1.82c-0.11,2.13-0.22,4.28-0.61,6.37c-0.78,4.13-1.8,8.22-2.63,12.34
		c-0.36,1.77-1.39,2.58-3.1,2.74c-0.13,0.01-0.26,0.04-0.39,0.06c-2.07,0.27-2.18,0.23-2.85-1.74
		C66.86,27.46,65.83,24.52,65.74,24.53z"/>
	<path class="st0" d="M78.19,9.58c0.62-0.57,3.38-0.99,5.66-1.08c3.35,0.16,8.07,0.36,8.46,1.89c0.4,1.59-0.27,4.45-1.55,4.31
		c-1.24-0.13-1.74-0.14-3.21-0.4c0.69,3.62,0.2,15.25,0.2,15.25s-0.06,2.78-6.13-0.76c-0.74-0.43,0.58-9.33,0.61-13.85
		c-0.04-0.16,0.01-0.79,0.02-0.9c-1.48,0.08-2.77,0.49-4,0.6C77.32,14.74,76.97,10.71,78.19,9.58z"/>
	<path class="st0" d="M104.78,21.58L104.78,21.58c-0.6-1.96-2.06-3.45-3.79-3.89c-0.65-0.17-1.33-0.18-1.99-0.03
		c-0.31,0.07-0.62,0.18-1.01,0.35c-0.06,0.03-0.12,0.06-0.18,0.08c-0.2,0.1-0.27,0.12-0.34,0.11c-0.14-0.02-0.28-0.18-0.38-0.34
		c-0.07-0.27-0.1-0.58-0.08-0.88c0.08-1.25,0.56-2.4,1.45-3.52c0.39-0.49,0.63-0.43,0.72-0.4c0.37,0.1,0.44,0.43,0.45,0.61
		c0.02,0.53,0,1.09-0.03,1.68c-0.01,0.28-0.02,0.56-0.03,0.86l-0.02,0.58l0.57,0.12c0.21,0.05,0.5,0.11,0.82,0.18
		c0.56,0.13,1.21,0.27,1.72,0.38c0.89,0.18,1.54,0.32,1.71-0.39c0.33-1.35,0.64-2.9,0.05-4.3c-0.41-0.97-1.1-1.79-2.13-2.53
		c-1.35-0.96-2.63-1.44-3.93-1.47c-1.69-0.02-3.18,0.69-4.27,2.09c-2.05,2.62-2.62,5.28-1.74,8.13c0.61,1.96,2.06,3.45,3.8,3.89
		c0.56,0.14,1.12,0.17,1.69,0.09c0.29-0.04,0.59-0.12,0.88-0.23c0.03-0.01,0.07-0.03,0.14-0.06c0.65-0.3,0.84-0.24,0.86-0.23
		c0.13,0.06,0.47,0.21,0.41,1.13c-0.08,1.25-0.56,2.4-1.45,3.52c-0.39,0.49-0.63,0.43-0.72,0.4c-0.37-0.1-0.44-0.43-0.45-0.61
		c-0.02-0.53,0-1.09,0.03-1.68c0.01-0.28,0.02-0.56,0.03-0.86l0.02-0.58l-0.57-0.12c-0.21-0.05-0.49-0.11-0.8-0.18
		c-0.56-0.13-1.21-0.27-1.73-0.38c-0.93-0.19-1.55-0.32-1.72,0.39c-0.33,1.35-0.64,2.9-0.05,4.3c0.41,0.97,1.1,1.79,2.13,2.53
		c1.35,0.96,2.63,1.44,3.93,1.47c0.04,0,0.08,0,0.12,0c1.65,0,3.09-0.72,4.16-2.09C105.09,27.09,105.66,24.42,104.78,21.58z"/>
	<path class="st0" d="M38.05,23.19c1.43-0.11,3.43-0.53,4.63-0.67c0.9-0.1,1.05,0.33,0.86,1.04c-0.42,1.53-0.78,3.08-1.36,4.55
		c-0.38,1.02-5.55,1.18-7.28,1.31c-0.86,0.06-1.52-0.51-1.72-1.42c-1.07-4.9,0.94-13.47,2.34-18.32c0.08-0.28,0.25-0.68,0.49-0.75
		c8.69-2.46,7.27-0.13,7.27-0.13S39.04,19.78,38.05,23.19z"/>
</g>
</svg>
