<?xml version="1.0" encoding="utf-8"?>
<!-- Generator: Adobe Illustrator 24.0.2, SVG Export Plug-In . SVG Version: 6.00 Build 0)  -->
<svg version="1.1" id="Layer_1" xmlns="http://www.w3.org/2000/svg" xmlns:xlink="http://www.w3.org/1999/xlink" x="0px" y="0px"
	 viewBox="0 0 125.32 36" style="enable-background:new 0 0 125.32 36;" xml:space="preserve">
<style type="text/css">
	.st0{fill:#F1F1F1;}
</style>
<g>
	<path class="st0" d="M21.36,14.74c-1.08-1.89-1.32-2.37-2.35-3.92c-0.76-1.14-2.01-1.7-3.36-1.31c-1.38,0.4-1.91,1.67-2.08,2.97
		c-0.43,3.3-0.05,6.52,1.5,9.51c0.42,0.8,1,1.58,1.67,2.18c5.31,4.12,5.23-5.04,5.23-5.04l7.36-2.4c0,0,1.77,8.69-2.79,12.2
		c-5.34,3.97-11.2,4.52-15.65,0.57c-4.99-4.44-6.45-10.06-5.68-16.5c0.42-3.5,2.1-6.19,5.07-7.91c2.57-1.49,5.49-1.79,8.46-1.56
		c2.29,0.17,4.44,0.75,6.31,2.1c2.41,1.74,2.93,3.7,3.78,6.41C28.9,12.27,23.47,14.02,21.36,14.74z"/>
	<path class="st0" d="M99.17,16.38c-0.65-1.53-0.8-1.91-1.44-3.17c-0.47-0.92-1.31-1.41-2.25-1.15c-0.97,0.26-1.38,1.25-1.56,2.27
		c-0.44,2.59-0.33,5.13,0.6,7.54c0.25,0.65,0.61,1.28,1.05,1.77c3.46,3.43,3.81-3.78,3.81-3.78l5.16-1.63c0,0,0.83,6.9-2.46,9.52
		c-3.84,2.94-7.89,3.17-10.76-0.1c-3.23-3.67-3.98-8.15-3.17-13.19c0.44-2.74,1.72-4.8,3.83-6.05c1.83-1.08,3.85-1.22,5.88-0.94
		c1.56,0.22,3.02,0.74,4.24,1.88c1.57,1.46,1.85,3.01,2.31,5.18C104.45,14.69,100.65,15.88,99.17,16.38z"/>
	<path class="st0" d="M50.24,22.01c0.08,1.34,0.18,2.68,0.23,4.02c0.06,1.37-0.46,1.85-1.84,1.75c-2.6-0.19-2.77-0.32-2.79-2.87
		C45.81,20.4,46.21,8.58,46.47,7.2c0.05-0.26,0.34-0.65,0.56-0.69c1.07-0.16,2.16-0.32,3.23-0.28c0.98,0.03,1.32,0.87,1.5,1.71
		c0.55,2.58,2.28,9.29,2.38,9.29c0.24-2.31,0.51-4.62,0.72-6.93c0.12-1.24,0.16-2.5,0.22-3.75c0.04-0.76,0.41-1.26,1.17-1.37
		c1.11-0.16,2.22-0.34,3.33-0.38c1.36-0.04,1.93,0.47,1.86,1.82c-0.11,2.13-0.22,4.28-0.61,6.37c-0.78,4.13-1.8,8.22-2.63,12.34
		c-0.36,1.77-1.39,2.58-3.1,2.74c-0.13,0.01-0.26,0.04-0.39,0.06c-2.07,0.27-2.18,0.23-2.85-1.74C51.35,24.94,50.33,22,50.24,22.01z
		"/>
	<path class="st0" d="M62.76,6.08c0.62-0.57,3.38-0.99,5.66-1.08c3.35,0.16,8.07,0.36,8.46,1.89c0.4,1.59-0.27,4.45-1.55,4.31
		c-1.24-0.13-1.74-0.14-3.21-0.4c0.69,3.62,0.2,15.25,0.2,15.25s-0.06,2.78-6.13-0.76c-0.74-0.43,0.58-9.33,0.61-13.85
		c-0.04-0.16,0.01-0.79,0.02-0.9c-1.48,0.08-2.77,0.49-4,0.6C61.89,11.24,61.54,7.21,62.76,6.08z"/>
	<path class="st0" d="M104.32,6.08c0.62-0.57,3.38-0.99,5.66-1.08c3.35,0.16,8.07,0.36,8.46,1.89c0.4,1.59-0.27,4.45-1.55,4.31
		c-1.24-0.13-1.74-0.14-3.21-0.4c0.69,3.62,0.2,18.27,0.2,18.27s-0.06,2.78-6.13-0.76c-0.74-0.43,0.58-12.35,0.61-16.87
		c-0.04-0.16,0.01-0.79,0.02-0.9c-1.48,0.08-2.77,0.49-4,0.6C103.45,11.24,103.1,7.21,104.32,6.08z"/>
	<path class="st0" d="M30.81,21.83c-1.24-4.68-0.7-8.64,1.52-12.29c2.32-3.81,7.75-3.87,10.1-0.1c2.29,3.67,3.2,7.75,2.14,12
		c-0.69,2.78-2.95,4.34-5.56,5.04c-2.51,0.67-4.98,0.18-6.73-1.95C31.53,23.63,31.13,22.45,30.81,21.83z M34.51,18.69
		c0.39,1.24,1.4,1.64,2.52,1.08c1.74-0.88,2.31-3.17,1.37-5.58c-0.68-1.76-2.01-1.98-3.16-0.47C34.06,15.25,34.17,17,34.51,18.69z"
		/>
	<path class="st0" d="M86.68,8.17c-0.07-1.36-1.02-2.04-2.35-1.92c-1.52,0.14-3.08,0.29-4.53,0.72c-0.74,0.22-1.4,1.95-1.68,2.68
		c-2.27,5.93-3.39,9.99-4.62,15.35c-0.11,0.49,2.86,2.51,4.47,3.39c0.09,0.05,0.17,0.07,0.27,0.02c0.17-0.08,0.28-0.27,0.37-0.42
		c0.15-0.26,0.26-0.53,0.37-0.81c0.13-0.35,0.25-0.71,0.36-1.07c0.12-0.39,0.23-0.79,0.33-1.18c0.1-0.39,0.2-0.78,0.3-1.17
		c0.04-0.18,0.2-0.95,0.29-1.04c0.15-0.16,1.06,0.07,1.21,0.13c0.13,0.05,0.31,0.12,0.36,0.27c0.02,0.06,0,0.09-0.01,0.14
		c0,0-1.05,4.76-1.1,5.89c-0.02,0.41,5.32,3.38,5.39,2.4c0.29-4.41,0.7-9.02,0.84-13.43C87.04,14.81,86.85,11.49,86.68,8.17z
		 M80.74,19.65c-0.12-0.37,0.97-2.33,1.14-2.67c0.01-0.02,0.02-0.05,0.04-0.06s0.05-0.02,0.07-0.01c0.02,0.01,0.03,0.03,0.03,0.05
		c0.05,0.19,0.04,0.42,0.06,0.62c0.02,0.23,0.04,0.45,0.06,0.68c0.05,0.5,0.12,1,0.16,1.5c0.01,0.15,0.02,0.29-0.01,0.44
		c-0.01,0.04-0.02,0.09-0.05,0.13c-0.08,0.1-0.23,0.08-0.35,0.05C81.49,20.26,80.82,19.9,80.74,19.65z"/>
</g>
</svg>
