<?xml version="1.0" encoding="utf-8"?>
<!-- Generator: Adobe Illustrator 24.0.2, SVG Export Plug-In . SVG Version: 6.00 Build 0)  -->
<svg version="1.1" id="Layer_1" xmlns="http://www.w3.org/2000/svg" xmlns:xlink="http://www.w3.org/1999/xlink" x="0px" y="0px"
	 viewBox="0 0 576 288" style="enable-background:new 0 0 576 288;" xml:space="preserve">
<style type="text/css">
	.st0{fill:#F2F1F1;}
</style>
<g>
	<path class="st0" d="M71.44,97.79c-3.64-6.4-6.48-12.07-9.97-17.31c-2.56-3.86-6.81-5.75-11.37-4.45
		c-4.68,1.34-6.46,5.67-7.03,10.05c-1.45,11.18-0.19,22.07,5.06,32.19c1.41,2.72,3.37,5.34,5.65,7.37
		c10.91,6.63,15.81-4.31,15.81-4.31l-5.89,1.57L59.7,108l38.74-11.57l13.87,43.36l-22.67,8.48l-3.71-10.07c0,0-0.06,1.18-0.55,2.19
		C73.46,159.77,49.05,157.07,34,143.7c-16.89-15.01-21.83-34.03-19.23-55.83c1.41-11.84,7.1-20.94,17.16-26.76
		c8.71-5.04,18.59-6.04,28.63-5.29c7.75,0.59,15.03,2.53,21.36,7.12c8.14,5.9,11.94,16.57,14.8,25.74
		C96.95,89.41,78.58,95.34,71.44,97.79z"/>
	<path class="st0" d="M230.01,108.15c0.42,12.11-5.93,23.4-19.33,30.19c-6.47,3.28-13.33,5.9-20.23,8.13
		c-3.94,1.28-4.96-0.07-5.25-4.26c-1.48-21.38-5.37-70.6-5.59-73.85c-0.16-2.38,0.19-5.08,3.2-5.25c6.31-0.35,12.76-1.1,18.94-0.18
		C213.02,64.61,227.71,78.99,230.01,108.15z M199.25,121.34c7.3-0.59,13.03-8.61,11.89-17.09c-0.89-6.63-6.26-11.04-13.78-10.63
		C197.99,102.87,198.62,112.1,199.25,121.34z"/>
	<path class="st0" d="M138.82,117.4c0.55-13.01,5.12-22.77,13.74-30.36c9.01-7.93,23-3.74,26.02,7.83
		c2.95,11.27,2.02,22.46-4.11,32.54c-4.01,6.58-11.05,8.8-18.32,8.51c-6.98-0.28-12.93-3.51-15.72-10.4
		C139.24,122.6,139.15,119.23,138.82,117.4z M150.84,112.29c0,3.48,2.28,5.34,5.61,4.78c5.19-0.87,8.46-6.29,7.99-13.23
		c-0.34-5.05-3.58-6.69-7.75-3.74C152.45,103.09,151.33,107.68,150.84,112.29z"/>
	<path class="st0" d="M356.18,115.92c-2.99-12.68-1.24-23.3,5.01-32.94c6.53-10.07,21.13-9.82,27.17,0.49
		c5.89,10.05,8.03,21.07,4.85,32.44c-2.07,7.42-8.25,11.46-15.33,13.15c-6.8,1.62-13.4,0.12-17.95-5.75
		C357.99,120.81,357,117.59,356.18,115.92z M366.37,107.75c0.95,3.35,3.64,4.53,6.69,3.09c4.76-2.24,6.44-8.34,4.11-14.9
		c-1.7-4.77-5.26-5.47-8.48-1.5C365.43,98.46,365.6,103.18,366.37,107.75z"/>
	<path class="st0" d="M100.73,86.49c-0.55-19.9,20.71-26,33.88-20.76c4.45,1.77,7.63,5.46,8.77,10.16
		c4.34,17.84-7.32,32.13-22.06,35.76c-8.31,2.05-14.99-2-17.42-10.11C102.44,96.64,101.76,91.51,100.73,86.49z M122.21,99.17
		c2.22,0.98,4.47-1.53,5.22-3.16c1.32-2.88,2.05-6.38,1.82-9.53c-0.28-3.86-3.6-4.99-6.29-2.24
		C120.81,86.44,117.35,97.02,122.21,99.17z"/>
	<path class="st0" d="M313.19,110.34c-0.37,5.05-0.68,10.11-1.14,15.16c-0.47,5.17-2.67,6.7-7.77,5.64
		c-9.63-2.01-10.19-2.59-8.99-12.15c2.12-16.9,9.56-60.9,11.22-65.97c0.32-0.96,1.59-2.27,2.44-2.29c4.08-0.07,8.23-0.12,12.23,0.55
		c3.65,0.61,4.51,3.92,4.76,7.17c0.75,9.92,3.89,35.92,4.24,35.95c2.07-8.52,4.21-17.02,6.17-25.57c1.06-4.6,1.84-9.27,2.71-13.91
		c0.53-2.83,2.18-4.5,5.06-4.54c4.22-0.06,8.47-0.17,12.65,0.25c5.1,0.51,6.98,2.74,6.05,7.75c-1.48,7.92-2.97,15.91-5.49,23.53
		c-5,15.07-10.86,29.86-16.04,44.87c-2.23,6.46-6.51,8.97-12.97,8.7c-0.5-0.02-0.99,0.03-1.49,0.03c-7.87-0.01-8.27-0.22-9.81-7.95
		C315.89,121.87,313.51,110.35,313.19,110.34z"/>
	<path class="st0" d="M267.45,84.85c3.18-0.31,5.65-0.57,8.12-0.78c2.72-0.23,4.09,1.28,3.84,3.77c-0.33,3.32-0.8,6.7-1.83,9.86
		c-0.42,1.3-2.28,2.57-3.75,3.02c-2.68,0.83-5.55,1.04-9.01,1.62c0.86,3.86,1.68,7.53,2.58,11.6c5.14-1.14,9.84-2.21,14.54-3.22
		c5.82-1.24,7.87,0.16,8.52,6.02c0.26,2.33,0.45,4.75,0.11,7.05c-0.83,5.63-3.13,9.65-9.55,10.1c-9.25,0.65-18.55,0.79-27.84,0.87
		c-4.52,0.04-5.7-3.87-6.26-7.21c-1.12-6.72-2.25-13.54-2.23-20.32c0.03-16.97,2.13-33.75,6.42-50.21
		c2.17-8.33,2.85-9.38,11.24-9.87c10.65-0.62,21.34-0.5,32.01-0.66c3.59-0.05,5.25,1.77,4.85,5.36c-0.58,5.19-1.08,10.38-1.83,15.55
		c-0.47,3.25-2.39,5.44-5.83,5.82c-5.67,0.63-14.35,1.36-20.03,1.39c-3.91,0.02-2.68,1.6-3.18,5.24
		C268.15,81.4,267.8,82.94,267.45,84.85z"/>
	<path class="st0" d="M422.89,64.58c3.08,1.18-3.55,19.76-5.24,29.5c-0.25,1.45-2.5,7.84,3.46,8.83c4.79,0.8,4.32-2.6,4.5-4.13
		c0.92-7.87,1.23-15.81,1.66-23.73c0.25-4.62,0.24-9.25,0.5-13.87c0.24-4.29,2.25-6.42,6.79-4.97c2.51,0.8,5.11,1.39,7.52,2.42
		c6.8,2.91,7.77,4.83,7.44,12.12c-0.76,16.75-3.69,33.11-8.37,49.18c-3.95,13.57-16.04,21-27.84,16.9
		c-7.97-2.76-12.02-9.2-13.88-16.89c-3.83-15.85-3.03-31.87-0.4-47.79c0.34-2.08,2.39-4.34,4.27-5.6
		C408,63.37,416.55,62.71,422.89,64.58z"/>
	<path class="st0" d="M500.92,145.91c0,0-10.66-0.43-14.19-0.87c-0.21-1.73-0.41-3.29-0.66-5.36c-1.2,0.78-2.17,1.5-3.23,2.07
		c-10.3,5.48-20.53,1.28-25.11-10.35c-4.74-12.03-6.18-24.59-5.99-37.43c0.12-8.49,2.86-15.87,9-21.81
		c6.75-6.54,17.23-8.31,25.8-4.53c10.36,4.57,16.74,12.5,16.6,23.17c-0.02,1.32-0.97,13.87-0.97,13.87s-19.49-2.73-22.35-3.2
		c0.9-5.01,2.9-12.16-1.74-12.92c-6.74-1.11-11.07,22.53-7.81,33.42c0.52,1.74,3.12,3.66,4.83,4.04c4.94,1.11,6.43-2.57,7.93-6.89
		c-2.4-0.53-4.51-1-7.15-1.59c0.95-4.53,1.86-8.83,2.79-13.26c8.14,1.3,15.88,2.54,24.14,3.86c-0.42,5.67-0.95,11.36-1.24,17.07
		c-0.3,5.76-0.45,17.29-0.45,17.29"/>
	<path class="st0" d="M531.33,79.74c0.86,1.3,0.82,3.23,0.65,4.88c-0.32,3.21-3.78,22.85-4.35,26.98l6.38,1.62
		c0,0,5.25-29.9,6.37-35.62c1.3-3.97,16.77,3.28,16.77,3.28s-11.97,72.27-13.06,81.16c-0.86,1.83-12.1-1.2-13.38-1.57
		c-0.35-0.1-0.72-0.15-1.06-0.29c-2.3-0.97-1.02-4.79-0.77-6.7c0.7-5.41,1.39-10.83,2.09-16.24c0.39-3.07,0.79-6.13,1.18-9.2
		l-6.24-0.36c-0.32,3.79-0.65,7.58-0.97,11.36c-0.51,5.92-1.22,11.88-1.39,17.82c-0.01,0.33-0.03,0.69-0.23,0.95
		c-0.21,0.28-0.57,0.39-0.91,0.46c-3.71,0.82-18.42-2.7-18.97-3.35c-0.32-0.38-0.35-0.93-0.25-1.41c0.17-0.74,1.03-5.21,1.16-6.16
		c0.53-4.07,1.05-8.15,1.58-12.22c0.66-5.09,1.31-10.19,1.97-15.28c0.69-5.36,1.38-10.72,2.06-16.09c0.62-4.88,1.24-9.75,1.86-14.63
		c0.46-3.64,0.68-3.57,1.13-7.21c0.12-0.96,0.26-1.87,0.57-2.79c0.09-0.27,0.19-0.54,0.4-0.73c0.21-0.2,0.5-0.28,0.77-0.35
		c4.19-1.07,9.35-0.49,13.58,0.13c0.76,0.11,1.54,0.25,2.18,0.66C530.8,79.09,531.09,79.39,531.33,79.74z"/>
</g>
<g>
	<path class="st0" d="M325.04,207.76c0,5.37-0.13,10.75,0.05,16.12c0.1,3.06-1.07,4.27-4,3.66c-4.06-0.85-12.54-1.41-12.54-2.83
		c0.33-5.6,0.78-11.08,0.95-16.58c0.55-18.65,1.11-37.3,1.39-55.96c0.05-3.36,1.47-5.05,4.25-5.66c6.5-1.43,13.07-3.6,19.61-3.6
		c13.27,0,21.28,6.16,20.91,20.89c-0.26,10.06-2.43,19.6-10.28,26.72c-2.27,2.06-5.22,3.35-8.15,5.17c1.02,1.67,2.21,3.8,3.57,5.82
		c5.47,8.12,6.82,25.48,5.29,26.56c-0.5,0.35-8.34,2.36-13.58-0.15c-2.17-1.04-2.53-6.1-2.95-8.65c-0.66-4-1.97-7.88-2.99-11.82
		C326.02,206.79,325.18,207.27,325.04,207.76z M327.5,182.37c7.68-6.05,7.93-13.99,0-19.01C327.5,169.88,327.5,176.04,327.5,182.37z
		"/>
	<path class="st0" d="M243.89,168.75c2.48-4.69,4.68-8.11,6.13-11.82c1.49-3.8,4.02-5.9,7.83-6.58c4.2-0.75,8.42-1.63,12.66-1.8
		c4.29-0.18,5.84,2.03,4,5.89c-4.93,10.36-10.24,20.54-15.39,30.79c-0.24,0.47-0.49,0.93-0.2,0.38
		c4.24,7.38,13.92,27.02,15.07,29.99c1.49,3.86,0.24,5.87-3.8,6.29c-2.52,0.26-5.04,0.68-7.57,0.72c-4.44,0.07-7.71-1.29-9.58-6.07
		c-1.98-5.06-9.27-16.45-10.88-17.09c0.43,5.4,3.3,21.02-0.34,21.09c-5.13,0.13-10.72,0.25-12.51-1.06
		c-1.89-1.39-2.5-4.14-3.01-9.42c-1.69-17.43-2.9-34.91-4.43-52.36c-0.22-2.45,0.87-3.59,2.93-3.9c5-0.74,10.03-1.4,15.06-1.88
		c2.87-0.28,4.07,1.41,4.03,4.2C243.85,159.95,243.89,163.77,243.89,168.75z"/>
	<path class="st0" d="M443.53,218.83c0.68,4.13,3.55,15.3,0.73,16.02c-0.09,0.02-0.16,0.17-0.27,0.21c-2.83,0.89-5.66,1.78-8.5,2.67
		c-5.12,0.73-1.87-47.25-1.51-66.93c0.07-3.83,0.85-7.66,1.45-11.46c0.36-2.25,1.75-3.27,4.15-2.85c9.64,1.68,10.6,1.27,9.98,11.33
		c-0.11,1.77-0.33,3.53-0.03,5.45c1.85-4.11,3.84-8.17,5.49-12.36c0.8-2.04,2-2.56,3.91-2.22c1.01,0.18,2.02,0.34,3.01,0.62
		c5.74,1.61,6.72,3.41,4.43,8.92c-4.19,10.06-8.42,20.12-12.91,30.05c-1.33,2.94-1.44,5.28-0.12,8.26
		c2.84,6.43,5.15,13.08,7.75,19.62c0.74,1.87,0.02,2.92-1.5,3.93c-7.13,4.7-8.54,4.29-11.5-3.38c-1.08-2.79-2.31-5.53-3.47-8.29
		C444.26,218.55,443.89,218.69,443.53,218.83z"/>
	<path class="st0" d="M365.37,217.21c-0.27,1.71-0.46,3.43-0.83,5.12c-1.04,4.76-2.19,5.77-6.84,4.65c-2.77-0.66-5.5-2.1-7.8-3.79
		c-1.01-0.75-1.3-3.01-1.26-4.58c0.43-16.78,5.34-32.55,10.99-48.17c2.62-7.26,4.91-13.88,7.53-22.06
		c2.02-4.83,11.69,0.48,16.58,4.06c2.5,1.85,2.71,4.87,2.77,7.48c0.23,10.01-0.12,20.03-0.13,30.05c0,10.42,0.24,20.83,0.2,31.25
		c-0.05,11.48-0.44,12.81-13.72,12.14c-1.05-0.05-2.09-0.44-3.14-0.64c-3.18-0.62-4.67-2.06-3.4-5.59c0.85-2.36,1.24-4.93,1.5-7.44
		C368.35,217.28,365.46,216.16,365.37,217.21z M371.77,206.41c0.24-4.66,0.4-7.95,0.57-11.25c-0.6-0.17-4.11,5.27-4.85,8.25
		C367.38,203.87,369.55,204.89,371.77,206.41z"/>
	<path class="st0" d="M388.9,200.43c0.29-9.77,0.88-19.63,5.91-28.85c5.1-9.32,13.07-11.97,18.69-10.86
		c8.36,1.64,14.27,8.29,15.74,17.59c2.63,16.69-0.84,32.43-7.75,47.51c-2.71,5.91-8.02,9.11-14.41,9.42
		c-6.24,0.3-10.36-3.45-13.21-8.81C389.55,218.34,389.08,209.57,388.9,200.43z M417.78,199.51c0-1.46,0.23-2.98-0.05-4.39
		c-0.68-3.42-2.56-5.93-6.29-6.22c-3.45-0.27-5.28,1.78-6.41,4.85c-2.37,6.45-3.24,13.02-0.68,19.49c0.79,2.01,6.78,8.03,10.14,0.92
		C416.34,209.54,418.05,199.58,417.78,199.51z"/>
	<path class="st0" d="M491.8,189.64c-2.39-1.18-3.95-1.92-5.48-2.71c-5.83-3.04-7.22-2.33-8.52,4.39c-0.13,1.04,7.73,2,8.26,3.39
		c0.8,2.1-1.59,10.52-2.98,10.1c-2.22-0.5-4.52-1.01-7.36-1.65c0,3,0,5.67,0,8.85c2.69-0.21,5.59-0.27,8.43-0.72
		c2.96-0.47,4.54,0.48,4.1,3.52c-0.61,4.21-1.36,8.41-2.38,12.53c-0.24,0.96-1.68,2.15-2.7,2.3c-7.46,1.11-13.98-1.54-19.84-5.82
		c-0.96-0.7-1.36-2.9-1.18-4.3c1.39-11.13,2.63-22.3,4.63-33.33c1.61-8.89,3.41-21.74,6.4-22.74c6.84-1.86,15.89,1.95,21.98,7.43
		C498.31,172.94,492.9,190.44,491.8,189.64z"/>
	<path class="st0" d="M203.39,182.07c-2.42-1.11-4-1.8-5.55-2.55c-5.92-2.87-7.29-2.12-8.39,4.63c-0.09,1.75,7.78,1.78,8.35,3.16
		c0.85,2.08-1.29,10.56-2.69,10.18c-2.24-0.43-4.55-1.56-7.41-1.44c-0.96-0.18-1.45,8.76,0.25,8.85c2.69-0.29,5.58-0.43,8.4-0.96
		c2.95-0.55,4.55,0.35,4.19,3.41c-0.49,4.22-1.12,8.44-2.02,12.59c-0.21,0.97-1.61,2.2-2.64,2.38c-7.43,1.32-22.3-4.19-21.31-9.52
		c1.08-11.17,1.99-22.37,3.68-33.45c1.36-8.93,2.79-21.83,5.74-22.91c6.78-2.06,15.93,1.5,22.18,6.8
		C209.42,165.2,204.52,182.84,203.39,182.07z"/>
	<path class="st0" d="M497.55,180.68c0.82-4.51,3.93-3.92,7.04-3.06c4.78,1.32,5.88,2.72,5.1,6.4c-1.94,9.12-3.85,18.25-5.92,27.35
		c-1.04,5.39-9.89,8.45-9.89-0.21C493.88,208.63,496.16,188.26,497.55,180.68z"/>
	<path class="st0" d="M497.16,230.48c-4.25,0.05-6.37-1.42-6.34-4.4c0.05-4.08,3.62-7.84,7.57-8c3.19-0.12,5.21,1.83,5.33,5.14
		C503.9,227.85,501.57,230.43,497.16,230.48z"/>
	<path class="st0" d="M161.78,213.08c7.11-9.58,16.2-46.65,13.81-48.2c-4.46-3.9-11.89-4.25-14.04-0.96
		c-3.11,5.1-2.19,27.51-8.81,33.49c-0.84-2.91,1.89-30.69-2.16-31.26c-5.83-0.83-12.84,1.07-12.64,5.53
		c0.59,13.85-1.15,31.81,2.04,43.25C140.91,217.39,159.08,217.46,161.78,213.08z"/>
	<path class="st0" d="M99.96,208.69c4.34-2.02,10.12-5.68,13.71-7.52c2.69-1.38,3.69-0.19,3.91,2.24
		c0.48,5.27,1.17,10.56,1.07,15.83c0.01,3.63-15.98,10.22-21.23,12.64c-2.62,1.2-5.36,0.18-7.04-2.44
		c-9.09-14.07-12.88-43.25-14.17-60.09c-0.07-0.97-0.02-2.42,0.66-2.92c24.31-17.88,22.6-8.93,22.6-8.93S99.08,196.84,99.96,208.69z
		"/>
	<path class="st0" d="M133.71,172.68c-0.07,10.18-1.32,34.77-1.51,44.09c-0.27,2.15-10.33,4.75-10.66,2.79
		c-0.6-8.07-2.36-38.52-0.83-39.96C124.6,175.96,133.35,171.51,133.71,172.68z"/>
	<path class="st0" d="M123.22,172.56c-5.88,0.95-8.7-1.44-8.38-6.05c0.3-4.33,2.37-7.81,6.12-10.04c2.55-1.51,5.27-1.83,7.79,0.27
		c2.11,1.75,3.04,6.26,1.6,9.27C128.66,169.55,127.6,171.7,123.22,172.56z"/>
	<path class="st0" d="M305.38,152.59c-0.18-3.65-2.75-5.5-6.33-5.17c-4.1,0.38-8.28,0.78-12.2,1.94c-1.99,0.59-3.76,5.24-4.52,7.22
		c-6.11,15.97-9.13,26.87-12.42,41.29c-0.3,1.31,7.7,6.75,12.01,9.11c0.24,0.13,0.46,0.18,0.72,0.05c0.45-0.22,0.75-0.72,1-1.14
		c0.4-0.69,0.71-1.44,0.99-2.19c0.36-0.94,0.67-1.9,0.96-2.87c0.32-1.06,0.62-2.12,0.9-3.19c0.28-1.04,0.54-2.09,0.81-3.14
		c0.12-0.48,0.54-2.55,0.78-2.8c0.41-0.44,2.85,0.2,3.27,0.34c0.36,0.12,0.84,0.33,0.96,0.73c0.04,0.15,0,0.25-0.03,0.39
		c0,0.01-2.82,12.81-2.97,15.86c-0.05,1.11,14.32,9.09,14.49,6.45c0.78-11.86,1.87-24.27,2.26-36.14
		C306.35,170.44,305.83,161.5,305.38,152.59z M289.4,183.45c-0.31-1,2.62-6.27,3.06-7.18c0.03-0.06,0.06-0.13,0.11-0.17
		s0.13-0.07,0.19-0.03c0.05,0.03,0.07,0.09,0.09,0.14c0.15,0.51,0.12,1.13,0.17,1.66c0.06,0.61,0.12,1.22,0.17,1.83
		c0.13,1.35,0.33,2.68,0.44,4.04c0.03,0.39,0.06,0.79-0.02,1.17c-0.03,0.12-0.06,0.24-0.14,0.34c-0.21,0.26-0.61,0.22-0.93,0.14
		C291.41,185.1,289.62,184.15,289.4,183.45z"/>
</g>
</svg>
