<?xml version="1.0" encoding="utf-8"?>
<!-- Generator: Adobe Illustrator 24.0.2, SVG Export Plug-In . SVG Version: 6.00 Build 0)  -->
<svg version="1.1" id="Layer_1" xmlns="http://www.w3.org/2000/svg" xmlns:xlink="http://www.w3.org/1999/xlink" x="0px" y="0px"
	 viewBox="0 0 79.28 36" style="enable-background:new 0 0 79.28 36;" xml:space="preserve">
<style type="text/css">
	.st0{fill:#F1F1F1;}
</style>
<g>
	<path class="st0" d="M12.65,4.04c0.41,0.41,0.55,1.11,0.61,1.72c0.13,1.19,0.39,8.6,0.5,10.15l2.44,0.1c0,0-0.4-11.27-0.43-13.44
		c0.17-1.54,6.35-0.1,6.35-0.1s1.22,27.2,1.51,30.51c-0.17,0.73-4.49,0.5-4.99,0.46c-0.14-0.01-0.27,0-0.41-0.02
		c-0.91-0.18-0.74-1.66-0.8-2.38c-0.16-2.02-0.33-4.04-0.49-6.06c-0.09-1.14-0.19-2.29-0.28-3.43l-2.3,0.35
		c0.17,1.4,0.35,2.8,0.52,4.21c0.27,2.19,0.47,4.41,0.87,6.59c0.02,0.12,0.04,0.25-0.01,0.36c-0.06,0.12-0.18,0.18-0.3,0.24
		c-1.29,0.58-6.91,0.44-7.15,0.24c-0.14-0.11-0.2-0.31-0.2-0.49c0-0.28-0.03-1.97-0.05-2.33c-0.12-1.52-0.25-3.04-0.37-4.56
		c-0.15-1.9-0.31-3.81-0.46-5.71c-0.16-2-0.33-4.01-0.49-6.01c-0.15-1.82-0.3-3.64-0.45-5.46C6.16,7.6,6.25,7.61,6.13,6.25
		C6.1,5.89,6.08,5.55,6.12,5.19c0.01-0.1,0.03-0.21,0.09-0.3c0.06-0.09,0.16-0.14,0.25-0.19c1.44-0.71,3.36-0.9,4.95-1
		c0.28-0.02,0.58-0.03,0.84,0.07C12.41,3.84,12.54,3.93,12.65,4.04z"/>
	<path class="st0" d="M23.91,20.08c0.1-3.31,0.31-6.65,2.06-9.76c1.78-3.16,4.56-4.05,6.53-3.68c2.92,0.56,4.98,2.81,5.49,5.95
		c0.92,5.65-0.29,10.98-2.71,16.08c-0.95,2-2.8,3.08-5.03,3.19c-2.18,0.1-3.62-1.17-4.61-2.98C24.14,26.14,23.98,23.17,23.91,20.08z
		 M33.99,19.77c0-0.5,0.08-1.01-0.02-1.48c-0.24-1.16-0.89-2.01-2.19-2.11c-1.2-0.09-1.84,0.6-2.24,1.64
		c-0.83,2.18-1.13,4.41-0.24,6.6c0.28,0.68,2.37,2.72,3.54,0.31C33.49,23.17,34.09,19.8,33.99,19.77z"/>
	<path class="st0" d="M71.37,16.81c-0.95-0.27-1.57-0.44-2.18-0.63c-2.33-0.73-2.8-0.38-2.83,2.16c0.06,0.65,2.96,0.22,3.24,0.7
		c0.43,0.72,0.11,3.95-0.43,3.89c-0.85-0.04-1.76-0.32-2.8-0.12c-0.36-0.01-0.05,3.3,0.58,3.24c0.97-0.26,2.03-0.47,3.04-0.82
		c1.05-0.37,1.69-0.12,1.73,1.02c0.05,1.58,0.05,3.16-0.05,4.74c-0.02,0.37-0.47,0.9-0.84,1.02c-2.66,0.9-8.43-0.31-8.36-2.32
		c-0.22-4.16-0.5-8.33-0.49-12.5c0.01-3.36-0.18-8.18,0.85-8.74c2.38-1.13,5.94-0.33,8.53,1.27C72.65,10.27,71.83,17.03,71.37,16.81
		z"/>
	<path class="st0" d="M60.89,5.91c-0.21-1.93-4.22-1.82-6.34-1.06c-1.08,0.39-1.48,1.45-1.78,2.37c-0.84,2.62-1.57,6.03-2.32,8.68
		c-0.33-2.55-0.65-5.1-1.07-7.64c-0.16-0.96-0.4-2.06-1.41-2.61c-1.99-1.06-5.83-2.5-6.31-0.62c-0.53,3.15-3.84,19.11-3.11,25.31
		c0.07,0.58,0.29,1.4,0.7,1.62c0.94,0.5,2.02,0.89,3.07,0.99c1.77,0.17,2.14-0.27,2.27-2.07c0.05-0.64,1.53-10.33,1.54-10.98
		c-0.03-0.39,1.1-0.13,1.03,0.79c0.01,0.34,0.25,8.71,1.07,9.29c0.86,0.61,2.38,0.25,2.52-0.34c0.11,0,2.26-7.56,2.38-8.19
		c0.06-0.92,1.22-1.01,1.13-0.63c-0.08,0.64-0.2,9.57-0.25,10.21c-0.13,1.8,0.17,2.29,1.95,2.38c1.06,0.06,2.18-0.17,3.18-0.53
		c0.44-0.16,0.93-1.5,0.93-1.5S60.96,9.1,60.89,5.91z"/>
</g>
</svg>
