<?xml version="1.0" encoding="utf-8"?>
<!-- Generator: Adobe Illustrator 24.0.2, SVG Export Plug-In . SVG Version: 6.00 Build 0)  -->
<svg version="1.1" id="Layer_1" xmlns="http://www.w3.org/2000/svg" xmlns:xlink="http://www.w3.org/1999/xlink" x="0px" y="0px"
	 viewBox="0 0 87.96 36" style="enable-background:new 0 0 87.96 36;" xml:space="preserve">
<style type="text/css">
	.st0{fill:#F1F1F1;}
</style>
<g>
	<path class="st0" d="M39.55,15.45c-0.95-0.27-1.57-0.44-2.18-0.63c-2.33-0.73-2.8-0.38-2.83,2.16c0.06,0.65,2.96,0.22,3.24,0.7
		c0.43,0.72,0.11,3.95-0.43,3.89c-0.85-0.04-1.76-0.32-2.8-0.12c-0.36-0.01-0.05,3.3,0.58,3.24c0.97-0.26,2.03-0.47,3.04-0.82
		c1.05-0.37,1.69-0.12,1.73,1.02c0.05,1.58,0.05,3.16-0.05,4.74c-0.02,0.37-0.47,0.9-0.84,1.02c-2.66,0.9-8.43-0.31-8.36-2.32
		c-0.22-4.16-0.5-8.33-0.49-12.5c0.01-3.36-0.18-8.18,0.85-8.74c2.38-1.13,5.94-0.33,8.53,1.27C40.84,8.91,40.01,15.67,39.55,15.45z
		"/>
	<path class="st0" d="M28.81,4.55c-0.21-1.93-4.22-1.82-6.34-1.06c-1.08,0.39-1.48,1.45-1.78,2.37c-0.84,2.62-1.57,6.03-2.32,8.68
		c-0.33-2.55-0.65-5.1-1.07-7.64c-0.16-0.96-0.4-2.06-1.41-2.61c-1.99-1.06-5.83-2.5-6.31-0.62C9.03,6.83,5.73,22.79,6.45,28.99
		c0.07,0.58,0.29,1.4,0.7,1.62c0.94,0.5,2.02,0.89,3.07,0.99c1.77,0.17,2.14-0.27,2.27-2.07c0.05-0.64,1.53-10.33,1.54-10.98
		c-0.03-0.39,1.1-0.13,1.03,0.79c0.01,0.34,0.25,8.71,1.07,9.29c0.86,0.61,2.38,0.25,2.52-0.34c0.11,0,2.26-7.56,2.38-8.19
		c0.06-0.92,1.22-1.01,1.13-0.63c-0.08,0.64-0.2,9.57-0.25,10.21c-0.13,1.8,0.17,2.29,1.95,2.38c1.06,0.06,2.18-0.17,3.18-0.53
		c0.44-0.16,0.93-1.5,0.93-1.5S28.88,7.74,28.81,4.55z"/>
	<path class="st0" d="M58.17,20.51c0.14,4.13-2.02,7.98-6.59,10.3c-2.21,1.12-4.55,2.01-6.9,2.77c-1.35,0.44-1.69-0.02-1.79-1.45
		c-0.5-7.3-1.83-24.09-1.91-25.19c-0.05-0.81,0.06-1.73,1.09-1.79c2.15-0.12,4.35-0.37,6.46-0.06
		C52.37,5.66,57.38,10.56,58.17,20.51z M47.67,25.01c2.49-0.2,4.44-2.94,4.06-5.83c-0.3-2.26-2.14-3.77-4.7-3.63
		C47.24,18.71,47.46,21.86,47.67,25.01z"/>
	<path class="st0" d="M65.3,12.82c-0.25,3.88-1.26,13.24-1.53,16.8c-0.15,0.82-4.05,1.59-4.13,0.84c-0.05-3.1-0.07-14.76,0.55-15.27
		C61.74,13.88,65.18,12.37,65.3,12.82z"/>
	<path class="st0" d="M61.29,12.55c-2.27,0.24-3.29-0.74-3.07-2.49c0.21-1.65,1.07-2.93,2.55-3.7c1.01-0.52,2.05-0.59,2.97,0.27
		c0.77,0.71,1.02,2.46,0.41,3.57C63.43,11.52,62.98,12.32,61.29,12.55z"/>
	<path class="st0" d="M72.61,28.8c0.02,0.59,0.07,1.17,0.05,1.76c-0.04,1.65-0.36,2.06-1.98,1.99c-0.96-0.04-1.96-0.34-2.84-0.76
		c-0.38-0.18-0.63-0.92-0.71-1.44c-0.93-5.61-0.31-11.16,0.56-16.72c0.41-2.58,0.74-4.93,1.09-7.82c0.36-1.74,3.92-0.59,5.77,0.29
		c0.95,0.45,1.21,1.45,1.4,2.31c0.72,3.31,1.24,6.67,1.89,10c0.67,3.46,1.42,6.91,2.07,10.37c0.72,3.82,0.68,4.29-3.78,4.92
		c-0.35,0.05-0.72-0.01-1.08-0.01c-1.1,0-1.69-0.38-1.49-1.64c0.13-0.84,0.1-1.72,0.02-2.57C73.6,28.63,72.57,28.44,72.61,28.8z
		 M74.04,24.8c-0.22-1.56-0.38-2.67-0.53-3.78c-0.21-0.02-1.03,2.01-1.08,3.05C72.42,24.23,73.2,24.43,74.04,24.8z"/>
</g>
</svg>
