<?xml version="1.0" encoding="utf-8"?>
<!-- Generator: Adobe Illustrator 24.0.2, SVG Export Plug-In . SVG Version: 6.00 Build 0)  -->
<svg version="1.1" id="Layer_1" xmlns="http://www.w3.org/2000/svg" xmlns:xlink="http://www.w3.org/1999/xlink" x="0px" y="0px"
	 viewBox="0 0 101.28 36" style="enable-background:new 0 0 101.28 36;" xml:space="preserve">
<style type="text/css">
	.st0{fill:#F1F1F1;}
</style>
<g>
	<path class="st0" d="M93.76,21.69L93.76,21.69c-0.72-2.32-2.44-4.08-4.5-4.61c-0.76-0.2-1.58-0.21-2.36-0.04
		c-0.37,0.08-0.74,0.21-1.19,0.42c-0.07,0.03-0.14,0.07-0.21,0.1c-0.24,0.12-0.32,0.15-0.4,0.14c-0.17-0.03-0.34-0.22-0.45-0.4
		c-0.09-0.32-0.12-0.69-0.1-1.04c0.1-1.48,0.66-2.85,1.72-4.18c0.47-0.58,0.75-0.51,0.86-0.48c0.44,0.12,0.52,0.5,0.53,0.72
		c0.03,0.63,0,1.29-0.03,1.99c-0.01,0.33-0.03,0.67-0.04,1.02l-0.02,0.69l0.68,0.15c0.25,0.05,0.59,0.13,0.97,0.22
		c0.66,0.15,1.43,0.32,2.04,0.45c1.06,0.22,1.82,0.38,2.03-0.46c0.4-1.6,0.76-3.44,0.06-5.09c-0.48-1.15-1.31-2.13-2.53-2.99
		c-1.6-1.14-3.12-1.71-4.66-1.74c-2-0.02-3.77,0.81-5.07,2.47c-2.43,3.11-3.1,6.26-2.06,9.64c0.72,2.32,2.44,4.09,4.5,4.61
		c0.66,0.17,1.33,0.2,2,0.1c0.35-0.05,0.7-0.14,1.04-0.27c0.03-0.01,0.09-0.04,0.16-0.07c0.77-0.36,1-0.28,1.02-0.28
		c0.15,0.07,0.55,0.25,0.48,1.34c-0.1,1.48-0.66,2.85-1.72,4.18c-0.47,0.59-0.75,0.51-0.86,0.48c-0.44-0.12-0.52-0.5-0.53-0.72
		c-0.03-0.63,0-1.29,0.03-1.99c0.01-0.33,0.03-0.67,0.04-1.02l0.02-0.69l-0.68-0.15c-0.25-0.05-0.58-0.13-0.95-0.21
		c-0.66-0.15-1.44-0.32-2.05-0.45c-1.1-0.23-1.83-0.38-2.04,0.46c-0.4,1.6-0.76,3.44-0.06,5.09c0.48,1.15,1.31,2.13,2.53,2.99
		c1.6,1.14,3.12,1.71,4.66,1.74c0.05,0,0.09,0,0.14,0c1.96,0,3.66-0.85,4.93-2.48C94.13,28.22,94.8,25.07,93.76,21.69z"/>
	<path class="st0" d="M31.5,7.08c0.35,0.4,0.43,1.06,0.46,1.63c0.05,1.1-0.18,6.43-0.17,7.87l2.24,0.24c0,0,0.33-8.9,0.44-10.9
		c0.25-1.41,5.85,0.3,5.85,0.3s-0.56,22.86-0.5,25.93c-0.2,0.66-4.17,0.18-4.62,0.12c-0.12-0.02-0.25-0.01-0.37-0.05
		C34,32,34.25,30.64,34.24,29.98c-0.03-1.87-0.05-2.99-0.08-4.86c-0.01-1.06-0.03-2.12-0.04-3.18l-2.14,0.18
		c0.07,1.3,0.15,2.6,0.22,3.91c0.11,2.04,0.16,3.34,0.39,5.36c0.01,0.11,0.02,0.24-0.03,0.33c-0.06,0.1-0.18,0.16-0.29,0.2
		c-1.22,0.46-6.39-0.02-6.6-0.22c-0.13-0.11-0.17-0.3-0.15-0.47c0.02-0.26,0.1-1.06,0.09-1.39c-0.02-1.41-0.04-2.82-0.06-4.23
		c-0.02-1.76-0.05-3.52-0.07-5.29c-0.03-1.85-0.05-3.71-0.08-5.56c-0.02-1.69-0.05-3.37-0.08-5.06c-0.02-1.26,0.06,0.26,0.03-1
		c-0.01-0.33,0-0.65,0.06-0.98c0.02-0.09,0.04-0.19,0.1-0.27c0.06-0.08,0.15-0.12,0.25-0.16c1.37-0.56,3.15-0.62,4.62-0.61
		c0.26,0,0.53,0.01,0.77,0.12C31.29,6.89,31.41,6.97,31.5,7.08z"/>
	<path class="st0" d="M51.75,3.88c0.78-0.7,4.22-1.16,7.06-1.22c4.16,0.27,10.03,0.61,10.48,2.52c0.46,1.98-0.43,5.53-2.01,5.33
		c-1.55-0.19-2.92-0.22-4.74-0.57c0.78,4.52-0.15,24.22-0.15,24.22s-0.05,3.48-6.85-1.05c-0.89-0.59,1-16.85,1.13-22.47
		c-0.04-0.2,0.03-0.98,0.04-1.12c-1.84,0.07-3.46,0.55-4.98,0.66C50.57,10.27,50.21,5.26,51.75,3.88z"/>
	<path class="st0" d="M24.33,14.12C23.42,6.02,17.93,2,13.74,1.52C11.69,1.28,9.56,1.41,7.47,1.5c-1.17-0.03-2.14,0.13-2.2,0.73
		C5.3,4.47,6.39,24.19,6.49,25.37C6.66,27.46,6.83,30.3,7,32.39c0.06,0.74-0.12,2.27,0.83,2.45c0.14,0.03,0.28,0.01,0.43,0.02
		c0.52,0.03,5.04,0.28,5.22-0.48c-0.1-1.15-0.31-5.83-0.55-10.54c1.45-0.41,2.89-0.86,4.27-1.38C22.17,20.6,24.51,17.48,24.33,14.12
		z M12.92,17.72c-0.19-1.91-0.37-3.82-0.56-5.72c-0.03-0.68-0.06-1.34-0.09-1.97c2.74-0.07,4.7,1.15,5.04,2.97
		C17.75,15.36,15.63,17.57,12.92,17.72z"/>
	<path class="st0" d="M41.26,23.97c-0.24-3.1-0.38-6.23,0.95-9.32c1.34-3.12,3.85-4.24,5.72-4.09c2.78,0.23,4.93,2.12,5.72,5.01
		c1.42,5.18,0.83,10.28-0.91,15.28c-0.68,1.96-2.31,3.16-4.38,3.48c-2.02,0.31-3.49-0.73-4.6-2.32
		C42.08,29.61,41.63,26.85,41.26,23.97z M50.64,22.67c-0.05-0.46-0.03-0.95-0.16-1.38c-0.34-1.06-1.03-1.78-2.26-1.75
		c-1.13,0.03-1.66,0.75-1.92,1.76c-0.55,2.12-0.61,4.23,0.44,6.18c0.33,0.61,2.48,2.3,3.34-0.07
		C50.51,25.89,50.73,22.68,50.64,22.67z"/>
	<path class="st0" d="M64.95,25.18c-0.24-3.1-0.38-6.23,0.95-9.32c1.34-3.12,3.85-4.24,5.72-4.09c2.78,0.23,4.93,2.12,5.72,5.01
		c1.42,5.18,0.83,10.28-0.91,15.28c-0.68,1.96-2.31,3.16-4.38,3.48c-2.02,0.31-3.49-0.73-4.6-2.32
		C65.77,30.81,65.32,28.06,64.95,25.18z M74.33,23.88c-0.05-0.46-0.03-0.95-0.16-1.38c-0.34-1.06-1.03-1.78-2.26-1.75
		c-1.13,0.03-1.66,0.75-1.92,1.76c-0.55,2.12-0.61,4.23,0.44,6.18c0.33,0.61,2.48,2.3,3.34-0.07C74.2,27.09,74.42,23.89,74.33,23.88
		z"/>
</g>
</svg>
