<?xml version="1.0" encoding="utf-8"?>
<!-- Generator: Adobe Illustrator 24.0.2, SVG Export Plug-In . SVG Version: 6.00 Build 0)  -->
<svg version="1.1" id="Layer_1" xmlns="http://www.w3.org/2000/svg" xmlns:xlink="http://www.w3.org/1999/xlink" x="0px" y="0px"
	 viewBox="0 0 99.63 36" style="enable-background:new 0 0 99.63 36;" xml:space="preserve">
<style type="text/css">
	.st0{fill:#F1F1F1;}
</style>
<g>
	<path class="st0" d="M25.63,20.51L25.63,20.51c-0.81-2.62-2.76-4.62-5.09-5.22c-0.87-0.22-1.79-0.24-2.67-0.04
		c-0.42,0.09-0.84,0.24-1.35,0.47c-0.08,0.04-0.16,0.07-0.24,0.11c-0.27,0.13-0.36,0.17-0.45,0.15c-0.19-0.03-0.38-0.24-0.51-0.46
		c-0.1-0.36-0.14-0.78-0.11-1.18c0.11-1.68,0.75-3.23,1.95-4.73c0.53-0.66,0.85-0.57,0.97-0.54c0.5,0.14,0.59,0.57,0.6,0.82
		c0.03,0.72,0,1.46-0.03,2.26c-0.02,0.37-0.03,0.76-0.04,1.16l-0.02,0.78l0.76,0.17c0.29,0.06,0.67,0.15,1.1,0.24
		c0.75,0.17,1.62,0.36,2.31,0.51c1.2,0.25,2.07,0.43,2.3-0.52c0.45-1.81,0.86-3.89,0.07-5.77c-0.55-1.3-1.48-2.41-2.86-3.39
		c-1.81-1.29-3.53-1.94-5.27-1.97c-2.27-0.03-4.27,0.92-5.74,2.8c-2.75,3.52-3.51,7.09-2.33,10.91c0.81,2.63,2.76,4.63,5.09,5.22
		c0.75,0.19,1.51,0.23,2.27,0.11c0.39-0.06,0.79-0.16,1.18-0.3c0.03-0.01,0.1-0.04,0.18-0.08c0.87-0.4,1.13-0.32,1.15-0.31
		c0.17,0.08,0.63,0.29,0.54,1.52c-0.11,1.68-0.75,3.23-1.95,4.73c-0.53,0.66-0.85,0.58-0.97,0.54c-0.5-0.14-0.59-0.57-0.6-0.82
		c-0.03-0.72,0-1.46,0.03-2.26c0.02-0.37,0.03-0.76,0.04-1.16l0.02-0.78l-0.76-0.17c-0.28-0.06-0.66-0.15-1.08-0.24
		c-0.75-0.17-1.63-0.37-2.32-0.51c-1.25-0.26-2.08-0.43-2.31,0.52c-0.45,1.81-0.86,3.89-0.07,5.76c0.55,1.3,1.48,2.41,2.86,3.39
		c1.81,1.29,3.53,1.94,5.27,1.97c0.05,0,0.1,0,0.16,0c2.22,0,4.15-0.97,5.58-2.8C26.04,27.9,26.81,24.33,25.63,20.51z"/>
	<path class="st0" d="M92.24,20.35L92.24,20.35c-0.51-2.19-1.98-3.94-3.85-4.56c-0.69-0.23-1.45-0.3-2.18-0.19
		c-0.35,0.05-0.7,0.15-1.13,0.31c-0.07,0.02-0.13,0.05-0.2,0.08c-0.23,0.09-0.3,0.12-0.38,0.1c-0.16-0.04-0.3-0.22-0.39-0.4
		c-0.06-0.3-0.07-0.64-0.02-0.97c0.19-1.37,0.8-2.59,1.87-3.75c0.47-0.51,0.73-0.42,0.82-0.39c0.4,0.14,0.45,0.5,0.44,0.7
		c-0.02,0.59-0.09,1.2-0.16,1.84c-0.03,0.3-0.07,0.62-0.1,0.94L86.9,14.7l0.61,0.18c0.23,0.07,0.54,0.16,0.88,0.26
		c0.6,0.18,1.3,0.39,1.85,0.55c0.96,0.27,1.66,0.47,1.91-0.29c0.47-1.45,0.93-3.13,0.39-4.7c-0.37-1.09-1.07-2.05-2.14-2.93
		c-1.4-1.16-2.77-1.79-4.19-1.92c-1.85-0.15-3.54,0.5-4.85,1.95c-2.45,2.71-3.28,5.59-2.54,8.78c0.51,2.19,1.99,3.94,3.85,4.56
		c0.6,0.2,1.22,0.27,1.84,0.23c0.32-0.03,0.65-0.09,0.98-0.18c0.03-0.01,0.08-0.03,0.15-0.05c0.73-0.28,0.94-0.2,0.96-0.19
		c0.14,0.07,0.49,0.27,0.36,1.27c-0.19,1.37-0.8,2.59-1.87,3.75c-0.47,0.51-0.73,0.42-0.82,0.39c-0.4-0.14-0.45-0.5-0.44-0.7
		c0.02-0.59,0.09-1.2,0.16-1.84c0.03-0.3,0.07-0.62,0.1-0.94l0.06-0.64l-0.61-0.18c-0.23-0.07-0.53-0.16-0.87-0.26
		c-0.6-0.18-1.31-0.39-1.86-0.55c-1-0.28-1.67-0.47-1.92,0.29c-0.47,1.45-0.93,3.13-0.39,4.7c0.37,1.09,1.07,2.05,2.14,2.94
		c1.4,1.16,2.77,1.79,4.19,1.92c0.04,0,0.09,0.01,0.13,0.01c1.81,0.13,3.44-0.55,4.72-1.96C92.15,26.41,92.98,23.54,92.24,20.35z"/>
	<path class="st0" d="M32.25,6.9c0.35,0.34,0.46,0.94,0.52,1.46c0.11,1,0.33,7.26,0.42,8.56L35.25,17c0,0-0.34-9.52-0.36-11.35
		c0.14-1.3,5.36-0.08,5.36-0.08s1.03,22.96,1.27,25.76c-0.14,0.62-3.79,0.42-4.21,0.39c-0.12-0.01-0.23,0-0.34-0.02
		c-0.77-0.15-0.62-1.4-0.67-2.01c-0.14-1.71-0.28-3.41-0.42-5.12c-0.08-0.97-0.16-1.93-0.24-2.9l-1.94,0.29
		c0.15,1.18,0.29,2.37,0.44,3.55c0.23,1.85,0.4,3.72,0.73,5.56c0.02,0.1,0.04,0.21-0.01,0.31c-0.05,0.1-0.15,0.16-0.25,0.2
		c-1.09,0.49-5.83,0.37-6.04,0.2c-0.12-0.1-0.17-0.26-0.17-0.42c0-0.24-0.02-1.67-0.05-1.97c-0.1-1.28-0.21-2.57-0.31-3.85
		c-0.13-1.61-0.26-3.21-0.39-4.82c-0.14-1.69-0.28-3.38-0.41-5.07c-0.13-1.54-0.25-3.07-0.38-4.61c-0.1-1.15-0.02-1.14-0.12-2.29
		c-0.03-0.3-0.04-0.59-0.01-0.89c0.01-0.09,0.02-0.18,0.08-0.25c0.05-0.07,0.13-0.12,0.21-0.16c1.22-0.6,2.84-0.76,4.17-0.84
		c0.24-0.02,0.49-0.02,0.71,0.06C32.04,6.73,32.15,6.8,32.25,6.9z"/>
	<path class="st0" d="M41.96,18.49c0.1-3.11,0.29-6.24,1.94-9.17c1.67-2.96,4.28-3.8,6.13-3.45c2.74,0.52,4.68,2.63,5.16,5.59
		c0.86,5.3-0.28,10.31-2.54,15.1c-0.89,1.88-2.63,2.89-4.72,2.99c-2.05,0.1-3.39-1.1-4.33-2.8C42.17,24.18,42.02,21.39,41.96,18.49z
		 M51.42,18.2c0-0.47,0.08-0.95-0.02-1.39c-0.22-1.09-0.84-1.88-2.06-1.98c-1.13-0.09-1.73,0.57-2.1,1.54
		c-0.78,2.05-1.06,4.14-0.22,6.19c0.26,0.64,2.22,2.55,3.32,0.29C50.95,21.38,51.51,18.22,51.42,18.2z"/>
	<path class="st0" d="M56.77,29.87c0.2,1.85,4.04,1.74,6.07,1.01c1.04-0.38,1.42-1.39,1.7-2.27c0.81-2.51,1.51-5.78,2.23-8.31
		c0.32,2.44,0.62,4.89,1.03,7.31c0.15,0.92,0.38,1.97,1.35,2.5c1.9,1.01,5.58,2.4,6.05,0.59c0.51-3.02,2.98-17.23,2.98-24.22
		c0-0.56-0.28-1.34-0.67-1.55c-0.9-0.48-1.93-0.85-2.94-0.94c-1.69-0.16-2.05,0.26-2.18,1.98c-0.04,0.61-1.47,9.89-1.48,10.51
		c0.02,0.38-1.05,0.13-0.99-0.75c-0.01-0.33-0.24-8.33-1.02-8.89c-0.82-0.59-2.27-0.24-2.41,0.32c-0.1,0-2.16,7.24-2.28,7.84
		c-0.06,0.88-1.16,0.97-1.09,0.6c0.08-0.61,0.19-9.16,0.24-9.77c0.13-1.73-0.16-2.19-1.86-2.28c-1.01-0.05-2.09,0.16-3.05,0.5
		c-0.42,0.15-0.75,0.9-0.89,1.43C56.01,11.26,56.7,26.81,56.77,29.87z"/>
</g>
</svg>
