<?xml version="1.0" encoding="utf-8"?>
<!-- Generator: Adobe Illustrator 24.0.2, SVG Export Plug-In . SVG Version: 6.00 Build 0)  -->
<svg version="1.1" id="Layer_1" xmlns="http://www.w3.org/2000/svg" xmlns:xlink="http://www.w3.org/1999/xlink" x="0px" y="0px"
	 viewBox="0 0 145.02 36" style="enable-background:new 0 0 145.02 36;" xml:space="preserve">
<style type="text/css">
	.st0{fill:#F1F1F1;}
</style>
<g>
	<path class="st0" d="M21.68,20.31L21.68,20.31c-0.79-2.63-2.73-4.64-5.06-5.25c-0.86-0.23-1.79-0.25-2.67-0.06
		c-0.42,0.09-0.84,0.23-1.35,0.46c-0.08,0.04-0.16,0.07-0.24,0.11c-0.28,0.13-0.36,0.17-0.45,0.15c-0.19-0.03-0.38-0.25-0.5-0.46
		c-0.1-0.36-0.13-0.78-0.1-1.18c0.12-1.68,0.77-3.22,1.98-4.72c0.53-0.66,0.85-0.57,0.97-0.54c0.49,0.14,0.58,0.58,0.59,0.82
		c0.03,0.72-0.01,1.46-0.05,2.26c-0.02,0.37-0.04,0.76-0.05,1.16l-0.03,0.78l0.76,0.17c0.29,0.06,0.67,0.15,1.1,0.25
		c0.75,0.17,1.62,0.37,2.3,0.52c1.2,0.25,2.06,0.44,2.3-0.5c0.46-1.81,0.88-3.89,0.11-5.76c-0.54-1.3-1.47-2.42-2.84-3.41
		c-1.8-1.3-3.52-1.96-5.26-2.01C10.93,3.07,8.93,4,7.45,5.87c-2.77,3.5-3.56,7.07-2.4,10.9c0.8,2.63,2.73,4.64,5.06,5.25
		c0.75,0.2,1.51,0.24,2.26,0.13c0.39-0.06,0.79-0.16,1.18-0.3c0.03-0.01,0.1-0.04,0.18-0.08c0.87-0.4,1.13-0.31,1.15-0.3
		c0.17,0.08,0.62,0.29,0.53,1.52c-0.12,1.68-0.77,3.22-1.98,4.72c-0.53,0.66-0.85,0.57-0.97,0.54c-0.5-0.14-0.58-0.58-0.59-0.82
		c-0.03-0.72,0.01-1.46,0.05-2.26c0.02-0.37,0.04-0.76,0.05-1.16L12,23.23l-0.76-0.17c-0.28-0.06-0.66-0.15-1.08-0.25
		c-0.75-0.17-1.62-0.38-2.31-0.52c-1.25-0.26-2.07-0.44-2.31,0.5c-0.46,1.81-0.88,3.89-0.11,5.76c0.54,1.3,1.47,2.42,2.84,3.41
		c1.8,1.3,3.52,1.96,5.26,2.01c0.05,0,0.1,0,0.16,0c2.22,0.01,4.15-0.94,5.6-2.77C22.05,27.71,22.84,24.14,21.68,20.31z"/>
	<path class="st0" d="M23,18.4c0.12-3.1,0.33-6.24,2-9.16c1.69-2.95,4.31-3.78,6.15-3.41c2.74,0.54,4.66,2.66,5.12,5.62
		c0.83,5.31-0.34,10.3-2.64,15.08c-0.9,1.87-2.65,2.88-4.74,2.96c-2.05,0.08-3.39-1.12-4.31-2.83C23.17,24.09,23.04,21.3,23,18.4z
		 M32.46,18.17c0-0.47,0.08-0.95-0.01-1.39c-0.21-1.09-0.83-1.89-2.05-1.99c-1.13-0.09-1.73,0.55-2.11,1.53
		c-0.79,2.04-1.09,4.13-0.26,6.19c0.26,0.64,2.21,2.56,3.32,0.31C31.97,21.35,32.55,18.19,32.46,18.17z"/>
</g>
<path class="st0" d="M42.16,24.33c0.09,1.53,0.2,3.06,0.27,4.6c0.07,1.57-0.54,2.12-2.14,2.01c-3.02-0.22-3.21-0.37-3.24-3.29
	c-0.04-5.16,0.43-18.68,0.73-20.26c0.06-0.3,0.39-0.75,0.65-0.78c1.24-0.18,2.51-0.37,3.75-0.33c1.14,0.04,1.54,0.99,1.74,1.96
	c0.64,2.95,2.65,10.63,2.76,10.63c0.28-2.64,0.59-5.28,0.84-7.93c0.13-1.42,0.18-2.86,0.26-4.29c0.05-0.87,0.48-1.44,1.36-1.57
	c1.28-0.19,2.58-0.39,3.87-0.43c1.58-0.05,2.24,0.54,2.16,2.08c-0.13,2.44-0.26,4.9-0.71,7.29c-0.91,4.73-2.09,9.4-3.06,14.12
	c-0.42,2.03-1.62,2.96-3.6,3.13c-0.15,0.01-0.3,0.05-0.45,0.07c-2.4,0.31-2.53,0.27-3.32-1.99C43.45,27.68,42.26,24.31,42.16,24.33z
	"/>
<path class="st0" d="M70.08,17.9c-0.63-1.85-1.08-3.46-1.73-5c-0.47-1.13-1.48-1.83-2.73-1.72c-1.28,0.11-1.96,1.15-2.33,2.26
	c-0.93,2.83-1.15,5.73-0.29,8.62c0.23,0.78,0.61,1.56,1.1,2.2c2.5,2.27,4.32-0.33,4.32-0.33l-1.61,0.11l-0.3-4.07l10.64-1.07
	l1.44,11.96l-6.31,1.07l-0.46-2.8c0,0-0.07,0.3-0.25,0.54c-4.06,4.44-10.27,2.53-13.52-1.7c-3.64-4.74-3.98-9.94-2.22-15.47
	c0.96-3.01,2.89-5.09,5.79-6.1c2.51-0.87,5.13-0.64,7.7,0.06c1.98,0.54,3.78,1.41,5.2,2.92c1.82,1.94,2.28,4.9,2.56,7.43
	C77.13,16.99,72.06,17.61,70.08,17.9z"/>
<g>
	<path class="st0" d="M109.99,13.13c-0.67,3.78-2.71,12.85-3.37,16.31c-0.24,0.78-4.2,1.13-4.2,0.38
		c0.29-3.04,1.56-14.47,2.23-14.91C106.34,13.78,109.93,12.67,109.99,13.13z"/>
	<path class="st0" d="M106.04,12.43c-2.28-0.01-3.19-1.07-2.78-2.77c0.39-1.59,1.39-2.76,2.95-3.36c1.06-0.41,2.11-0.36,2.93,0.58
		c0.68,0.78,0.75,2.52,0.01,3.55C108.28,11.65,107.74,12.38,106.04,12.43z"/>
</g>
<path class="st0" d="M94.8,22.87c1.88-0.48,4.45-1.51,6.02-1.98c1.17-0.35,1.49,0.19,1.4,1.16c-0.19,2.11-0.29,4.23-0.72,6.3
	c-0.26,1.43-7.12,2.88-9.39,3.46c-1.13,0.28-2.15-0.31-2.64-1.46c-2.61-6.18-2.01-17.91-1.32-24.62c0.04-0.39,0.17-0.95,0.48-1.1
	c11-5.3,9.66-1.9,9.66-1.9S95.3,18.15,94.8,22.87z"/>
<path class="st0" d="M124.63,19.55L124.63,19.55c-0.5-2.19-1.96-3.95-3.82-4.59c-0.69-0.24-1.44-0.31-2.17-0.2
	c-0.35,0.05-0.7,0.14-1.13,0.3c-0.07,0.02-0.13,0.05-0.2,0.08c-0.23,0.09-0.31,0.11-0.38,0.1c-0.16-0.04-0.3-0.22-0.38-0.4
	c-0.06-0.3-0.06-0.64-0.02-0.97c0.2-1.36,0.82-2.59,1.89-3.74c0.47-0.51,0.73-0.41,0.83-0.38c0.4,0.14,0.44,0.5,0.44,0.71
	c-0.02,0.59-0.09,1.2-0.17,1.84c-0.04,0.3-0.07,0.61-0.11,0.94l-0.07,0.64l0.61,0.18c0.23,0.07,0.54,0.16,0.88,0.27
	c0.6,0.18,1.3,0.4,1.85,0.56c0.96,0.28,1.66,0.48,1.91-0.28c0.48-1.45,0.95-3.12,0.42-4.7c-0.36-1.09-1.06-2.06-2.12-2.95
	c-1.39-1.17-2.76-1.81-4.18-1.95c-1.85-0.17-3.54,0.48-4.86,1.92c-2.47,2.7-3.32,5.56-2.6,8.76c0.5,2.2,1.96,3.95,3.83,4.59
	c0.6,0.2,1.22,0.28,1.84,0.24c0.32-0.02,0.65-0.08,0.98-0.17c0.03-0.01,0.08-0.03,0.15-0.05c0.74-0.27,0.94-0.19,0.96-0.18
	c0.13,0.07,0.49,0.27,0.35,1.28c-0.2,1.36-0.82,2.59-1.89,3.74c-0.47,0.51-0.73,0.42-0.83,0.38c-0.4-0.14-0.44-0.5-0.44-0.71
	c0.02-0.59,0.09-1.2,0.17-1.84c0.04-0.3,0.07-0.61,0.11-0.94l0.07-0.64l-0.61-0.18c-0.23-0.07-0.53-0.16-0.86-0.26
	c-0.6-0.19-1.3-0.4-1.86-0.56c-1-0.29-1.67-0.48-1.92,0.28c-0.48,1.45-0.95,3.12-0.42,4.7c0.36,1.09,1.06,2.06,2.12,2.95
	c1.4,1.17,2.76,1.81,4.18,1.95c0.04,0,0.09,0.01,0.13,0.01c1.81,0.14,3.45-0.53,4.73-1.93C124.5,25.61,125.35,22.75,124.63,19.55z"
	/>
<path class="st0" d="M126.76,5.04c0.69-0.68,2.5-0.49,4.9-0.51c3.49,0.35,8.43,0.79,8.71,2.7c0.29,1.98-0.64,5.5-1.97,5.28
	c-1.29-0.22-1.82-0.25-3.33-0.63c0.43,4.52-1.06,19.48-1.06,19.48s-0.29,3.45-6.36-1.2c-0.74-0.57,1.4-12.12,1.8-17.71
	c-0.03-0.2,0.08-0.98,0.09-1.11c-1.56,0.04-1.83-0.1-3.13-0.02C125.44,11.39,125.39,6.39,126.76,5.04z"/>
</svg>
