<?xml version="1.0" encoding="utf-8"?>
<!-- Generator: Adobe Illustrator 24.0.2, SVG Export Plug-In . SVG Version: 6.00 Build 0)  -->
<svg version="1.1" id="Layer_1" xmlns="http://www.w3.org/2000/svg" xmlns:xlink="http://www.w3.org/1999/xlink" x="0px" y="0px"
	 viewBox="0 0 176.25 42.19" style="enable-background:new 0 0 176.25 42.19;" xml:space="preserve">
<style type="text/css">
	.st0{fill:#F1F1F1;}
</style>
<g>
	<path class="st0" d="M111.18,31.35c0.09,1.53,0.2,3.06,0.27,4.6c0.07,1.57-0.54,2.12-2.14,2.01c-3.02-0.22-3.21-0.37-3.24-3.29
		c-0.04-5.16,0.43-18.68,0.73-20.26c0.06-0.3,0.39-0.75,0.65-0.78c1.24-0.18,2.51-0.37,3.75-0.33c1.14,0.04,1.54,0.99,1.74,1.96
		c0.64,2.95,2.65,10.63,2.76,10.63c0.28-2.64,0.59-5.28,0.84-7.93c0.13-1.42,0.18-2.86,0.26-4.29c0.05-0.87,0.48-1.44,1.36-1.57
		c1.28-0.19,2.58-0.39,3.87-0.43c1.58-0.05,2.24,0.54,2.16,2.08c-0.13,2.44-0.26,4.9-0.71,7.29c-0.91,4.73-2.09,9.4-3.06,14.12
		c-0.42,2.03-1.62,2.96-3.6,3.13c-0.15,0.01-0.3,0.05-0.45,0.07c-2.4,0.31-2.53,0.27-3.32-1.99
		C112.48,34.7,111.28,31.33,111.18,31.35z"/>
	<path class="st0" d="M4.14,3.49C5,2.61,8.28,1.82,11.64,1.5c4.95-0.04,11.94-0.15,12.64,2.05c0.72,2.27-0.02,6.49-1.92,6.39
		c-1.85-0.09-2.59-0.06-4.77-0.31c1.32,5.2,1.71,24.29,1.71,24.29s0.66,3.88-7.59-0.67c-1.1-0.61-0.06-15.76-0.39-22.32
		c-0.07-0.23-0.05-1.15-0.05-1.31c-2.18,0.24-4.8,0.98-6.6,1.24C3.29,11.05,2.43,5.24,4.14,3.49z"/>
	<path class="st0" d="M49.05,11.2c0.69-0.68,2.5-0.49,4.9-0.51c3.49,0.35,8.43,0.79,8.71,2.7c0.29,1.98-0.64,5.5-1.97,5.28
		c-1.29-0.22-1.82-0.25-3.33-0.63c0.43,4.52-1.06,19.48-1.06,19.48s-0.29,3.45-6.36-1.2c-0.74-0.57,1.4-12.12,1.8-17.71
		c-0.03-0.2,0.08-0.98,0.09-1.11c-1.56,0.04-1.83-0.1-3.13-0.02C47.73,17.55,47.68,12.54,49.05,11.2z"/>
	<path class="st0" d="M91.48,12.03c-0.17-1.84-4.04-1.79-6.1-1.11c-1.05,0.36-1.45,1.35-1.76,2.23c-0.86,2.48-1.62,5.71-2.38,8.22
		c-0.28-2.43-0.55-4.86-0.91-7.28c-0.14-0.91-0.35-1.96-1.32-2.5c-1.9-1.04-5.58-2.47-6.09-0.69c-0.57,2.98-4.01,18.1-3.42,24
		c0.06,0.55,0.26,1.33,0.65,1.55c0.9,0.49,1.93,0.87,2.95,0.98c1.71,0.19,2.07-0.22,2.23-1.93c0.06-0.61,1.65-9.8,1.67-10.41
		c-0.02-0.37,1.06-0.11,0.98,0.76c0.01,0.32,0.1,8.28,0.88,8.84c0.82,0.6,2.29,0.27,2.44-0.28c0.1,0.01,2.31-7.15,2.43-7.75
		c0.08-0.87,1.19-0.94,1.1-0.58c-0.09,0.6-0.35,9.09-0.4,9.7c-0.16,1.71,0.13,2.18,1.84,2.29c1.02,0.07,2.11-0.12,3.08-0.45
		c0.43-0.14,0.92-1.41,0.92-1.41S91.49,15.07,91.48,12.03z"/>
	<path class="st0" d="M69.28,19.8c-1.29,3.62-2.54,12.23-3.77,15.53c-0.36,0.73-4.33,0.43-4.21-0.31
		c0.79-2.95,1.68-14.02,2.41-14.35C65.57,19.85,69.29,19.34,69.28,19.8z"/>
	<path class="st0" d="M65.94,18.47c-2.25-0.38-2.97-1.58-2.28-3.18c0.65-1.51,1.83-2.49,3.47-2.83c1.11-0.23,2.14-0.01,2.79,1.05
		c0.55,0.88,0.32,2.6-0.58,3.5C68.28,18.06,67.63,18.7,65.94,18.47z"/>
	<path class="st0" d="M131.41,18.64c-0.98,3.71-3.76,12.58-4.71,15.97c-0.3,0.76-4.28,0.78-4.22,0.03
		c0.54-3.01,2.75-14.29,3.45-14.68C127.72,18.99,131.39,18.17,131.41,18.64z"/>
	<path class="st0" d="M127.53,17.62c-2.27-0.2-3.09-1.33-2.54-2.99c0.52-1.56,1.62-2.63,3.22-3.1c1.09-0.32,2.13-0.18,2.87,0.82
		c0.62,0.83,0.54,2.57-0.28,3.53C129.83,17.03,129.24,17.71,127.53,17.62z"/>
	<path class="st0" d="M30.81,19.97c-0.95-0.27-1.57-0.44-2.18-0.62c-2.34-0.72-2.8-0.37-2.83,2.13c0.06,0.64,2.96,0.22,3.25,0.69
		c0.43,0.71,0.11,3.9-0.43,3.84c-0.85-0.04-1.76-0.32-2.8-0.12c-0.36-0.01-0.05,3.25,0.58,3.19c0.97-0.25,2.03-0.46,3.04-0.81
		c1.06-0.36,1.69-0.12,1.73,1.01c0.05,1.56,0.05,3.12-0.05,4.67c-0.02,0.36-0.47,0.88-0.84,1.01c-2.66,0.88-8.44-0.3-8.37-2.29
		c-0.22-4.1-0.5-8.21-0.49-12.32c0.01-3.31-0.18-8.06,0.85-8.61c2.38-1.12,5.95-0.33,8.54,1.25C32.1,13.52,31.27,20.19,30.81,19.97z
		"/>
	<path class="st0" d="M47.5,24.51L47.5,24.51c-0.72-2.3-2.45-4.05-4.52-4.57c-0.77-0.19-1.59-0.21-2.37-0.04
		c-0.37,0.08-0.74,0.21-1.2,0.41c-0.07,0.03-0.14,0.06-0.21,0.1c-0.24,0.12-0.32,0.15-0.4,0.13c-0.17-0.03-0.34-0.21-0.45-0.4
		c-0.09-0.32-0.12-0.68-0.1-1.03c0.1-1.47,0.67-2.82,1.73-4.14c0.47-0.58,0.76-0.5,0.86-0.47c0.44,0.12,0.52,0.5,0.53,0.72
		c0.03,0.63,0,1.28-0.03,1.97c-0.01,0.32-0.03,0.66-0.04,1.01l-0.02,0.68l0.68,0.14c0.25,0.05,0.6,0.13,0.97,0.21
		c0.66,0.15,1.44,0.32,2.05,0.44c1.07,0.22,1.84,0.37,2.04-0.45c0.4-1.58,0.76-3.41,0.06-5.04c-0.49-1.13-1.32-2.11-2.54-2.97
		c-1.61-1.13-3.14-1.69-4.69-1.73c-2.02-0.02-3.79,0.81-5.1,2.45c-2.44,3.08-3.12,6.21-2.07,9.55c0.72,2.3,2.46,4.05,4.53,4.57
		c0.66,0.17,1.34,0.2,2.01,0.1c0.35-0.05,0.7-0.14,1.04-0.27c0.03-0.01,0.09-0.03,0.16-0.07c0.77-0.35,1-0.28,1.02-0.27
		c0.15,0.07,0.56,0.25,0.48,1.33c-0.1,1.47-0.67,2.82-1.73,4.14c-0.47,0.58-0.76,0.5-0.86,0.48c-0.44-0.12-0.52-0.5-0.53-0.72
		c-0.03-0.63,0-1.28,0.03-1.97c0.01-0.33,0.03-0.66,0.04-1.01l0.02-0.68l-0.68-0.14c-0.25-0.05-0.59-0.13-0.96-0.21
		c-0.67-0.15-1.44-0.32-2.06-0.45c-1.11-0.22-1.85-0.37-2.05,0.45c-0.4,1.58-0.76,3.41-0.06,5.04c0.49,1.13,1.32,2.11,2.54,2.97
		c1.61,1.13,3.14,1.7,4.69,1.73c0.05,0,0.09,0,0.14,0c1.97,0,3.68-0.85,4.96-2.45C47.87,30.98,48.55,27.86,47.5,24.51z"/>
	<path class="st0" d="M168.15,24.53L168.15,24.53c-0.64-2.03-2.17-3.58-4-4.04c-0.68-0.17-1.41-0.18-2.1-0.03
		c-0.33,0.07-0.66,0.18-1.06,0.37c-0.06,0.03-0.13,0.06-0.19,0.09c-0.22,0.1-0.28,0.13-0.36,0.12c-0.15-0.02-0.3-0.19-0.4-0.35
		c-0.08-0.28-0.11-0.6-0.09-0.91c0.09-1.3,0.59-2.5,1.53-3.66c0.42-0.51,0.67-0.44,0.76-0.42c0.39,0.1,0.46,0.44,0.47,0.63
		c0.02,0.55,0,1.13-0.03,1.75c-0.01,0.29-0.03,0.58-0.03,0.9l-0.02,0.61l0.6,0.13c0.22,0.05,0.53,0.11,0.86,0.19
		c0.59,0.13,1.27,0.28,1.81,0.39c0.94,0.19,1.62,0.33,1.81-0.4c0.35-1.4,0.68-3.02,0.06-4.46c-0.43-1-1.17-1.86-2.25-2.62
		c-1.42-1-2.78-1.5-4.15-1.53c-1.78-0.02-3.36,0.71-4.51,2.17c-2.16,2.73-2.76,5.49-1.83,8.45c0.64,2.03,2.17,3.58,4.01,4.04
		c0.59,0.15,1.19,0.18,1.78,0.09c0.31-0.05,0.62-0.12,0.92-0.24c0.03-0.01,0.08-0.03,0.14-0.06c0.68-0.31,0.89-0.25,0.91-0.24
		c0.13,0.06,0.49,0.22,0.43,1.18c-0.09,1.3-0.59,2.5-1.53,3.66c-0.42,0.51-0.67,0.45-0.76,0.42c-0.39-0.1-0.46-0.44-0.47-0.63
		c-0.02-0.56,0-1.13,0.03-1.75c0.01-0.29,0.03-0.58,0.03-0.9l0.02-0.61l-0.6-0.13c-0.22-0.05-0.52-0.11-0.85-0.19
		c-0.59-0.13-1.28-0.28-1.82-0.39c-0.98-0.2-1.63-0.33-1.82,0.4c-0.35,1.4-0.68,3.02-0.06,4.46c0.43,1,1.17,1.86,2.25,2.63
		c1.42,1,2.78,1.5,4.15,1.53c0.04,0,0.08,0,0.12,0c1.75,0,3.26-0.75,4.39-2.17C168.48,30.26,169.08,27.49,168.15,24.53z"/>
	<path class="st0" d="M92.02,25.37c0.1-3.06,0.29-6.15,1.94-9.04c1.67-2.92,4.29-3.75,6.14-3.4c2.75,0.52,4.68,2.6,5.16,5.51
		c0.86,5.23-0.28,10.16-2.55,14.88c-0.89,1.85-2.63,2.85-4.73,2.95c-2.05,0.1-3.4-1.08-4.34-2.76
		C92.23,30.98,92.08,28.24,92.02,25.37z M101.49,25.09c0-0.46,0.08-0.93-0.02-1.37c-0.22-1.07-0.84-1.86-2.06-1.95
		c-1.13-0.09-1.73,0.56-2.1,1.52c-0.78,2.02-1.06,4.08-0.22,6.11c0.26,0.63,2.23,2.51,3.33,0.29
		C101.02,28.23,101.59,25.11,101.49,25.09z"/>
	<path class="st0" d="M148.79,28.51c1.39-0.36,3.29-1.12,4.44-1.46c0.87-0.26,1.1,0.14,1.03,0.86c-0.14,1.56-0.22,3.13-0.53,4.65
		c-0.19,1.05-5.26,2.13-6.93,2.55c-0.84,0.21-1.59-0.23-1.95-1.08c-1.93-4.56-1.49-13.23-0.97-18.19c0.03-0.29,0.12-0.7,0.35-0.81
		c8.12-3.91,7.14-1.41,7.14-1.41S149.16,25.03,148.79,28.51z"/>
	<path class="st0" d="M134.99,34.17c-0.09,0.57-0.16,1.15-0.28,1.72c-0.35,1.6-0.75,1.94-2.34,1.56c-0.95-0.22-1.88-0.71-2.66-1.28
		c-0.35-0.25-0.44-1.01-0.43-1.54c0.15-5.64,1.82-10.94,3.75-16.19c0.9-2.44,1.68-4.66,2.57-7.42c0.69-1.62,3.99,0.16,5.66,1.37
		c0.85,0.62,0.93,1.64,0.95,2.52c0.08,3.36-0.04,6.73-0.04,10.1c0,3.5,0.08,7,0.07,10.5c-0.02,3.86-0.15,4.31-4.69,4.08
		c-0.36-0.02-0.71-0.15-1.07-0.22c-1.09-0.21-1.59-0.69-1.16-1.88c0.29-0.79,0.42-1.66,0.51-2.5
		C136.01,34.19,135.02,33.81,134.99,34.17z M137.18,30.54c0.08-1.56,0.14-2.67,0.2-3.78c-0.21-0.06-1.4,1.77-1.66,2.77
		C135.68,29.68,136.42,30.02,137.18,30.54z"/>
</g>
</svg>
