<?xml version="1.0" encoding="utf-8"?>
<!-- Generator: Adobe Illustrator 24.0.2, SVG Export Plug-In . SVG Version: 6.00 Build 0)  -->
<svg version="1.1" id="Layer_1" xmlns="http://www.w3.org/2000/svg" xmlns:xlink="http://www.w3.org/1999/xlink" x="0px" y="0px"
	 viewBox="0 0 97.89 36" style="enable-background:new 0 0 97.89 36;" xml:space="preserve">
<style type="text/css">
	.st0{fill:#F1F1F1;}
</style>
<g>
	<path class="st0" d="M29.61,2.96c0,0,0.87-3.64-7.25,0.16c-1.04,0.48-1.06,13.71-1.7,20.3c-0.06-0.17-0.13-0.31-0.17-0.38
		c-2.32-5.81-6.05-19.78-7.23-19.98C4.42,1.5,6.2,4.79,6.2,4.79s4.75,13,7.81,19.15c0.97,2.02,4.01,8.57,5.11,9.43
		c1.03,0.35,5.3,0.79,6.1-1.25C26.05,30.01,29.61,2.96,29.61,2.96z"/>
	<path class="st0" d="M35.1,14.72c-1.05,3.5-1.81,11.75-2.81,14.95c-0.31,0.72-4.1,0.62-4.02-0.09c0.6-2.84,0.9-13.41,1.58-13.76
		C31.58,14.95,35.09,14.28,35.1,14.72z"/>
	<path class="st0" d="M31.86,13.62c-2.16-0.25-2.9-1.35-2.33-2.91c0.54-1.47,1.62-2.46,3.15-2.86c1.04-0.27,2.03-0.11,2.7,0.86
		c0.56,0.81,0.43,2.46-0.37,3.36C34.07,13.12,33.48,13.75,31.86,13.62z"/>
	<path class="st0" d="M61.33,15.68c-0.91-0.26-1.5-0.41-2.08-0.59c-2.22-0.68-2.66-0.35-2.7,2.03c0.06,0.61,2.82,0.21,3.09,0.66
		c0.41,0.67,0.1,3.71-0.41,3.65c-0.81-0.03-1.68-0.3-2.67-0.11c-0.35-0.01-0.05,3.1,0.55,3.04c0.93-0.24,1.93-0.44,2.89-0.77
		c1-0.34,1.61-0.11,1.65,0.96c0.05,1.48,0.05,2.97-0.04,4.45c-0.02,0.34-0.45,0.84-0.8,0.96c-2.53,0.84-8.03-0.29-7.97-2.18
		c-0.21-3.91-0.48-7.82-0.47-11.73c0.01-3.15-0.17-7.67,0.81-8.2c2.27-1.06,5.66-0.31,8.13,1.19C62.56,9.55,61.77,15.89,61.33,15.68
		z"/>
	<path class="st0" d="M90.22,20.05L90.22,20.05c-0.61-1.93-2.07-3.41-3.81-3.85c-0.65-0.16-1.34-0.17-2-0.03
		c-0.31,0.07-0.63,0.18-1.01,0.35c-0.06,0.03-0.12,0.05-0.18,0.08c-0.21,0.1-0.27,0.12-0.34,0.11c-0.15-0.02-0.29-0.18-0.38-0.34
		c-0.07-0.27-0.1-0.57-0.08-0.87c0.08-1.24,0.56-2.38,1.46-3.49c0.4-0.49,0.64-0.42,0.73-0.4c0.37,0.1,0.44,0.42,0.45,0.6
		c0.02,0.53,0,1.08-0.03,1.66c-0.01,0.27-0.02,0.56-0.03,0.85l-0.02,0.58l0.57,0.12c0.21,0.05,0.5,0.11,0.82,0.18
		c0.56,0.12,1.21,0.27,1.73,0.37c0.9,0.18,1.55,0.31,1.72-0.38c0.33-1.33,0.64-2.87,0.05-4.25c-0.41-0.96-1.11-1.77-2.14-2.5
		c-1.35-0.95-2.65-1.43-3.95-1.45c-1.7-0.02-3.2,0.68-4.29,2.07c-2.06,2.6-2.63,5.23-1.74,8.05c0.61,1.94,2.07,3.41,3.81,3.85
		c0.56,0.14,1.13,0.17,1.7,0.08c0.29-0.04,0.59-0.12,0.88-0.22c0.03-0.01,0.07-0.03,0.14-0.06c0.65-0.3,0.84-0.24,0.86-0.23
		c0.13,0.06,0.47,0.21,0.41,1.12c-0.08,1.24-0.56,2.38-1.46,3.49c-0.4,0.49-0.64,0.42-0.73,0.4c-0.37-0.1-0.44-0.42-0.45-0.6
		c-0.02-0.53,0-1.08,0.03-1.66c0.01-0.27,0.02-0.56,0.03-0.85l0.02-0.58l-0.57-0.12c-0.21-0.05-0.49-0.11-0.81-0.18
		c-0.56-0.12-1.22-0.27-1.74-0.38c-0.94-0.19-1.55-0.32-1.73,0.38c-0.33,1.33-0.64,2.87-0.05,4.25c0.41,0.96,1.11,1.77,2.14,2.5
		c1.36,0.95,2.65,1.43,3.95,1.45c0.04,0,0.08,0,0.12,0c1.66,0,3.1-0.71,4.18-2.07C90.53,25.5,91.1,22.87,90.22,20.05z"/>
	<path class="st0" d="M51.41,21.61c-0.4,3.92-2.95,7.26-7.56,8.85c-2.23,0.77-4.55,1.31-6.87,1.72c-1.33,0.24-1.59-0.24-1.5-1.6
		c0.47-6.95,1.4-22.95,1.48-24.01c0.06-0.77,0.29-1.63,1.26-1.55c2.05,0.17,4.16,0.21,6.1,0.78C47.87,6.85,51.96,12.13,51.41,21.61z
		 M40.93,24.49c2.37,0.14,4.57-2.19,4.58-4.97c0.01-2.17-1.52-3.83-3.96-4.03C41.34,18.49,41.13,21.49,40.93,24.49z"/>
	<path class="st0" d="M62.5,25.05c-1.11-4.71-0.46-8.66,1.86-12.24c2.43-3.74,7.85-3.65,10.1,0.18c2.19,3.74,2.98,7.83,1.8,12.06
		c-0.77,2.76-3.07,4.26-5.7,4.89c-2.53,0.6-4.98,0.04-6.67-2.14C63.17,26.86,62.81,25.67,62.5,25.05z M66.29,22.01
		c0.35,1.25,1.35,1.68,2.49,1.15c1.77-0.83,2.39-3.1,1.53-5.54c-0.63-1.77-1.95-2.03-3.15-0.56C65.94,18.56,66,20.31,66.29,22.01z"
		/>
</g>
</svg>
