<?xml version="1.0" encoding="utf-8"?>
<!-- Generator: Adobe Illustrator 24.0.2, SVG Export Plug-In . SVG Version: 6.00 Build 0)  -->
<svg version="1.1" id="Layer_1" xmlns="http://www.w3.org/2000/svg" xmlns:xlink="http://www.w3.org/1999/xlink" x="0px" y="0px"
	 viewBox="0 0 360 67.76" style="enable-background:new 0 0 360 67.76;" xml:space="preserve">
<style type="text/css">
	.st0{fill:#F1F1F1;}
</style>
<g>
	<path class="st0" d="M122.91,444.69c-1.8-3.16-2.2-3.95-3.92-6.54c-1.27-1.9-3.36-2.84-5.61-2.19c-2.31,0.66-3.19,2.8-3.47,4.96
		c-0.72,5.52-0.09,10.89,2.5,15.88c0.69,1.34,1.66,2.64,2.79,3.64c8.87,6.88,8.73-8.41,8.73-8.41l12.3-4.01
		c0,0,2.95,14.51-4.66,20.38c-8.92,6.63-18.71,7.55-26.14,0.95c-8.34-7.41-10.77-16.8-9.49-27.55c0.7-5.84,3.51-10.34,8.47-13.21
		c4.3-2.49,9.18-2.98,14.13-2.61c3.82,0.29,7.42,1.25,10.54,3.51c4.02,2.91,4.89,6.17,6.3,10.7
		C135.5,440.56,126.43,443.48,122.91,444.69z"/>
	<path class="st0" d="M166.56,442.86c-0.34,5.38-1.74,18.34-2.12,23.26c-0.21,1.13-5.6,2.2-5.72,1.16
		c-0.08-4.28-0.1-20.43,0.76-21.15C161.64,444.32,166.4,442.22,166.56,442.86z"/>
	<path class="st0" d="M161.02,442.48c-3.14,0.33-4.56-1.02-4.25-3.45c0.29-2.28,1.49-4.06,3.54-5.12c1.39-0.72,2.84-0.81,4.11,0.37
		c1.06,0.99,1.42,3.4,0.57,4.95C163.98,441.05,163.36,442.15,161.02,442.48z"/>
	<path class="st0" d="M183.38,445.94c-1.43-0.56-2.36-0.9-3.28-1.28c-3.5-1.45-4.27-0.97-4.67,2.95c-0.02,0.61,4.54,0.76,4.91,1.53
		c0.56,1.17-0.38,6.12-1.2,5.95c-1.3-0.17-2.64-0.35-4.31-0.57c0.15,1.72,0.29,3.26,0.45,5.08c1.54-0.26,3.2-0.44,4.8-0.84
		c1.68-0.42,2.63,0.05,2.53,1.82c-0.14,2.45-0.36,4.9-0.73,7.31c-0.09,0.56-0.85,1.32-1.44,1.46c-4.23,1.02-8.11-0.18-11.69-2.34
		c-0.59-0.35-0.93-1.6-0.9-2.41c0.24-6.46,0.39-12.94,0.98-19.38c0.48-5.18,0.86-12.66,2.53-13.38c3.83-1.42,9.22,0.32,13,3.15
		C186.27,436.03,184.05,446.35,183.38,445.94z"/>
	<path class="st0" d="M193.41,460.66c0.13,2.24,0.29,4.47,0.39,6.71c0.1,2.29-0.78,3.09-3.07,2.93c-4.34-0.32-4.62-0.54-4.65-4.8
		c-0.06-7.53,0.62-27.26,1.05-29.58c0.08-0.44,0.56-1.09,0.94-1.15c1.78-0.27,3.6-0.53,5.39-0.48c1.64,0.05,2.21,1.45,2.51,2.86
		c0.91,4.3,3.81,15.52,3.97,15.51c0.41-3.86,0.84-7.71,1.2-11.57c0.19-2.08,0.26-4.17,0.37-6.26c0.07-1.27,0.69-2.1,1.95-2.29
		c1.85-0.27,3.7-0.57,5.56-0.63c2.26-0.07,3.22,0.79,3.11,3.04c-0.18,3.56-0.37,7.15-1.03,10.64c-1.3,6.9-3.01,13.73-4.4,20.61
		c-0.6,2.96-2.33,4.32-5.17,4.58c-0.22,0.02-0.43,0.07-0.65,0.1c-3.45,0.46-3.64,0.39-4.77-2.91
		C195.27,465.55,193.55,460.64,193.41,460.66z"/>
	<path class="st0" d="M214.19,435.7c1.03-0.95,5.64-1.65,9.45-1.8c5.59,0.28,13.48,0.6,14.12,3.16c0.66,2.65-0.45,7.43-2.58,7.2
		c-2.08-0.22-2.91-0.24-5.36-0.66c1.15,6.05,0.34,25.47,0.34,25.47s-0.1,4.65-10.23-1.26c-1.23-0.72,0.97-15.59,1.02-23.13
		c-0.06-0.26,0.02-1.32,0.03-1.5c-2.47,0.13-4.63,0.82-6.68,1C212.75,444.31,212.16,437.59,214.19,435.7z"/>
	<path class="st0" d="M258.6,455.73L258.6,455.73c-1.01-3.26-3.44-5.75-6.33-6.5c-1.08-0.28-2.23-0.29-3.32-0.05
		c-0.52,0.12-1.04,0.3-1.68,0.59c-0.1,0.05-0.2,0.09-0.29,0.14c-0.34,0.17-0.45,0.21-0.56,0.19c-0.24-0.04-0.47-0.3-0.63-0.57
		c-0.12-0.45-0.17-0.97-0.14-1.47c0.14-2.09,0.93-4.02,2.42-5.88c0.66-0.82,1.06-0.71,1.21-0.68c0.62,0.17,0.73,0.71,0.74,1.02
		c0.04,0.89,0,1.82-0.04,2.81c-0.02,0.46-0.04,0.94-0.05,1.44l-0.03,0.97l0.95,0.21c0.36,0.08,0.84,0.18,1.36,0.3
		c0.93,0.21,2.02,0.45,2.87,0.63c1.49,0.31,2.57,0.53,2.86-0.65c0.56-2.25,1.07-4.85,0.09-7.17c-0.68-1.61-1.84-2.99-3.56-4.22
		c-2.25-1.61-4.4-2.41-6.56-2.45c-2.82-0.03-5.31,1.15-7.14,3.49c-3.42,4.38-4.37,8.83-2.9,13.58c1.01,3.27,3.44,5.76,6.34,6.5
		c0.93,0.24,1.88,0.28,2.82,0.14c0.49-0.07,0.98-0.2,1.46-0.38c0.04-0.02,0.12-0.05,0.23-0.1c1.08-0.5,1.4-0.4,1.43-0.39
		c0.21,0.1,0.78,0.36,0.68,1.89c-0.14,2.09-0.93,4.01-2.42,5.88c-0.66,0.82-1.06,0.72-1.21,0.68c-0.62-0.17-0.73-0.71-0.74-1.02
		c-0.04-0.89,0-1.82,0.04-2.81c0.02-0.46,0.04-0.94,0.05-1.44l0.03-0.97l-0.95-0.21c-0.35-0.08-0.82-0.18-1.34-0.3
		c-0.93-0.21-2.02-0.46-2.88-0.63c-1.55-0.32-2.58-0.53-2.87,0.64c-0.56,2.25-1.07,4.85-0.09,7.17c0.68,1.61,1.85,2.99,3.56,4.22
		c2.25,1.61,4.4,2.41,6.56,2.45c0.06,0,0.13,0,0.19,0c2.76,0,5.16-1.2,6.94-3.49C259.12,464.93,260.07,460.49,258.6,455.73z"/>
	<path class="st0" d="M147.16,458.42c2.39-0.18,5.73-0.88,7.73-1.11c1.5-0.17,1.76,0.56,1.44,1.73c-0.7,2.55-1.3,5.15-2.28,7.59
		c-0.63,1.7-9.27,1.98-12.15,2.19c-1.44,0.1-2.54-0.86-2.87-2.38c-1.78-8.18,1.56-22.49,3.91-30.6c0.14-0.47,0.42-1.14,0.82-1.25
		c14.51-4.1,12.14-0.22,12.14-0.22S148.83,452.73,147.16,458.42z"/>
</g>
<g>
	<path class="st0" d="M213.42,260.57c0.14,2.38,0.32,4.77,0.42,7.16c0.11,2.44-0.84,3.3-3.33,3.12c-4.7-0.34-5-0.57-5.04-5.12
		c-0.07-8.03,0.67-29.06,1.13-31.53c0.09-0.47,0.61-1.16,1.02-1.22c1.93-0.29,3.9-0.57,5.84-0.51c1.77,0.06,2.39,1.55,2.72,3.05
		c0.99,4.59,4.13,16.55,4.3,16.54c0.44-4.11,0.91-8.22,1.3-12.34c0.21-2.22,0.28-4.45,0.4-6.67c0.07-1.36,0.75-2.24,2.11-2.44
		c2-0.29,4.01-0.61,6.02-0.68c2.45-0.08,3.49,0.85,3.36,3.24c-0.2,3.79-0.4,7.62-1.11,11.34c-1.41,7.36-3.26,14.63-4.76,21.98
		c-0.65,3.16-2.52,4.6-5.6,4.88c-0.24,0.02-0.47,0.08-0.71,0.11c-3.74,0.49-3.94,0.42-5.16-3.1
		C215.44,265.79,213.57,260.55,213.42,260.57z"/>
	<path class="st0" d="M46.85,217.23c1.34-1.37,6.45-2.6,11.68-3.1c7.7-0.06,18.58-0.23,19.66,3.18c1.12,3.54-0.03,10.09-2.99,9.94
		c-2.88-0.14-4.02-0.1-7.42-0.48c2.06,8.1,2.66,37.8,2.66,37.8s1.03,6.03-11.82-1.05c-1.72-0.95-0.09-24.53-0.61-34.74
		c-0.11-0.35-0.07-1.79-0.08-2.03c-3.39,0.37-7.47,1.53-10.28,1.93C45.53,228.99,44.19,219.94,46.85,217.23z"/>
	<path class="st0" d="M116.74,229.22c1.08-1.06,3.9-0.76,7.63-0.79c5.43,0.54,13.12,1.23,13.55,4.2c0.45,3.09-1,8.56-3.07,8.21
		c-2.01-0.34-2.83-0.39-5.18-0.98c0.67,7.03-1.65,30.31-1.65,30.31s-0.45,5.36-9.89-1.86c-1.15-0.88,2.18-18.85,2.8-27.56
		c-0.04-0.31,0.12-1.52,0.14-1.73c-2.42,0.06-2.85-0.16-4.86-0.03C114.68,239.1,114.61,231.32,116.74,229.22z"/>
	<path class="st0" d="M182.76,230.52c-0.26-2.87-6.29-2.79-9.49-1.72c-1.64,0.56-2.26,2.11-2.73,3.47
		c-1.33,3.86-2.52,8.88-3.71,12.78c-0.43-3.78-0.85-7.56-1.42-11.32c-0.22-1.42-0.55-3.05-2.06-3.89c-2.96-1.62-8.69-3.85-9.47-1.08
		c-0.88,4.64-6.25,28.16-5.32,37.34c0.09,0.85,0.4,2.07,1.02,2.41c1.39,0.77,3.01,1.36,4.59,1.53c2.65,0.29,3.22-0.34,3.47-3.01
		c0.09-0.95,2.56-15.24,2.59-16.19c-0.03-0.58,1.66-0.17,1.53,1.19c0.01,0.5,0.15,12.88,1.37,13.76c1.28,0.93,3.56,0.42,3.8-0.44
		c0.16,0.01,3.59-11.13,3.78-12.05c0.12-1.35,1.85-1.47,1.72-0.9c-0.14,0.94-0.54,14.14-0.63,15.09c-0.25,2.67,0.2,3.39,2.86,3.57
		c1.59,0.11,3.28-0.19,4.79-0.7c0.66-0.22,1.44-2.19,1.44-2.19S182.78,235.25,182.76,230.52z"/>
	<path class="st0" d="M148.22,242.61c-2.01,5.63-3.96,19.03-5.87,24.17c-0.57,1.14-6.74,0.66-6.55-0.49
		c1.23-4.59,2.61-21.82,3.76-22.32C142.44,242.69,148.24,241.88,148.22,242.61z"/>
	<path class="st0" d="M143.02,240.54c-3.5-0.59-4.62-2.46-3.55-4.95c1.01-2.35,2.85-3.88,5.39-4.4c1.73-0.35,3.32-0.01,4.34,1.63
		c0.85,1.37,0.5,4.05-0.9,5.45C146.67,239.91,145.65,240.89,143.02,240.54z"/>
	<path class="st0" d="M244.9,240.8c-1.53,5.78-5.85,19.58-7.33,24.85c-0.47,1.18-6.66,1.21-6.57,0.05
		c0.84-4.68,4.28-22.24,5.38-22.84C239.16,241.35,244.86,240.08,244.9,240.8z"/>
	<path class="st0" d="M238.86,239.22c-3.54-0.31-4.82-2.07-3.95-4.65c0.81-2.42,2.51-4.1,5-4.82c1.69-0.49,3.31-0.28,4.46,1.27
		c0.96,1.3,0.84,4-0.43,5.5C242.44,238.29,241.52,239.36,238.86,239.22z"/>
	<path class="st0" d="M88.36,242.86c-1.48-0.42-2.45-0.68-3.4-0.97c-3.64-1.12-4.36-0.58-4.41,3.32c0.1,0.99,4.61,0.34,5.05,1.07
		c0.67,1.1,0.17,6.06-0.66,5.97c-1.32-0.06-2.74-0.49-4.36-0.18c-0.57-0.02-0.08,5.06,0.91,4.97c1.51-0.39,3.16-0.72,4.73-1.25
		c1.64-0.56,2.64-0.19,2.69,1.57c0.08,2.42,0.08,4.85-0.07,7.27c-0.04,0.56-0.74,1.38-1.3,1.56c-4.14,1.38-13.13-0.47-13.02-3.56
		c-0.34-6.39-0.78-12.78-0.77-19.17c0.01-5.15-0.28-12.55,1.32-13.4c3.71-1.74,9.25-0.51,13.29,1.95
		C90.36,232.84,89.07,243.21,88.36,242.86z"/>
	<path class="st0" d="M114.32,249.94L114.32,249.94c-1.12-3.57-3.82-6.3-7.04-7.11c-1.2-0.3-2.47-0.32-3.69-0.06
		c-0.58,0.13-1.16,0.33-1.87,0.64c-0.11,0.05-0.22,0.1-0.33,0.15c-0.38,0.18-0.5,0.23-0.63,0.21c-0.27-0.04-0.53-0.33-0.7-0.62
		c-0.14-0.49-0.19-1.06-0.16-1.61c0.15-2.29,1.04-4.39,2.69-6.44c0.73-0.9,1.18-0.78,1.34-0.74c0.69,0.18,0.81,0.78,0.83,1.12
		c0.04,0.98,0,1.99-0.05,3.07c-0.02,0.51-0.04,1.03-0.06,1.58l-0.03,1.07l1.06,0.22c0.4,0.08,0.93,0.2,1.52,0.33
		c1.03,0.23,2.24,0.5,3.19,0.69c1.66,0.34,2.86,0.58,3.18-0.71c0.62-2.46,1.19-5.3,0.1-7.85c-0.76-1.77-2.05-3.28-3.96-4.62
		c-2.5-1.76-4.89-2.64-7.29-2.69c-3.14-0.04-5.9,1.26-7.93,3.81c-3.8,4.79-4.86,9.66-3.22,14.86c1.12,3.58,3.82,6.3,7.05,7.11
		c1.03,0.26,2.09,0.31,3.13,0.16c0.54-0.08,1.09-0.22,1.63-0.41c0.05-0.02,0.13-0.05,0.25-0.11c1.2-0.55,1.56-0.44,1.59-0.43
		c0.24,0.11,0.87,0.39,0.75,2.07c-0.15,2.29-1.04,4.39-2.69,6.44c-0.73,0.9-1.18,0.78-1.34,0.74c-0.69-0.18-0.81-0.78-0.83-1.11
		c-0.04-0.98,0-1.99,0.05-3.07c0.02-0.51,0.04-1.03,0.06-1.58l0.03-1.06l-1.06-0.23c-0.39-0.08-0.91-0.2-1.49-0.33
		c-1.04-0.23-2.25-0.5-3.21-0.69c-1.73-0.35-2.87-0.58-3.19,0.7c-0.62,2.46-1.19,5.3-0.1,7.85c0.76,1.77,2.05,3.28,3.96,4.62
		c2.5,1.76,4.89,2.64,7.29,2.69c0.07,0,0.14,0,0.22,0c3.07,0,5.73-1.32,7.72-3.82C114.9,260.01,115.96,255.15,114.32,249.94z"/>
	<path class="st0" d="M302.07,249.97L302.07,249.97c-0.99-3.16-3.38-5.57-6.23-6.29c-1.06-0.27-2.19-0.29-3.27-0.05
		c-0.51,0.11-1.02,0.29-1.65,0.57c-0.1,0.04-0.19,0.09-0.29,0.13c-0.34,0.16-0.44,0.2-0.55,0.19c-0.24-0.04-0.47-0.29-0.62-0.55
		c-0.12-0.44-0.17-0.94-0.14-1.42c0.14-2.02,0.92-3.89,2.38-5.7c0.65-0.8,1.04-0.69,1.19-0.65c0.61,0.16,0.72,0.69,0.73,0.99
		c0.04,0.86,0,1.76-0.04,2.72c-0.02,0.45-0.04,0.91-0.05,1.39l-0.03,0.94l0.94,0.2c0.35,0.07,0.82,0.18,1.34,0.29
		c0.92,0.2,1.98,0.44,2.82,0.61c1.47,0.3,2.53,0.51,2.82-0.62c0.55-2.18,1.05-4.69,0.09-6.95c-0.67-1.56-1.81-2.9-3.5-4.08
		c-2.21-1.56-4.33-2.33-6.45-2.38c-2.78-0.03-5.22,1.11-7.02,3.38c-3.36,4.24-4.3,8.54-2.85,13.15c0.99,3.16,3.38,5.57,6.23,6.29
		c0.91,0.23,1.85,0.28,2.77,0.14c0.48-0.07,0.96-0.19,1.44-0.37c0.04-0.02,0.12-0.05,0.22-0.1c1.06-0.49,1.38-0.39,1.41-0.38
		c0.21,0.09,0.77,0.34,0.67,1.83c-0.14,2.02-0.92,3.89-2.38,5.7c-0.65,0.8-1.04,0.69-1.19,0.65c-0.61-0.16-0.72-0.69-0.73-0.99
		c-0.04-0.86,0-1.77,0.04-2.72c0.02-0.45,0.04-0.91,0.05-1.39l0.03-0.94l-0.94-0.2c-0.34-0.07-0.81-0.18-1.32-0.29
		c-0.92-0.2-1.99-0.44-2.84-0.61c-1.53-0.31-2.54-0.52-2.83,0.62c-0.55,2.18-1.05,4.69-0.09,6.94c0.67,1.56,1.81,2.9,3.5,4.08
		c2.22,1.56,4.33,2.33,6.45,2.38c0.06,0,0.13,0,0.19,0c2.72,0,5.07-1.16,6.83-3.38C302.58,258.88,303.51,254.58,302.07,249.97z"/>
	<path class="st0" d="M183.6,251.28c0.15-4.76,0.45-9.57,3.02-14.06c2.6-4.55,6.68-5.83,9.55-5.3c4.27,0.8,7.29,4.04,8.04,8.57
		c1.34,8.14-0.43,15.81-3.96,23.16c-1.38,2.88-4.1,4.44-7.36,4.59c-3.19,0.15-5.29-1.68-6.75-4.29
		C183.93,260.01,183.69,255.73,183.6,251.28z M198.34,250.83c0-0.71,0.12-1.45-0.02-2.14c-0.34-1.67-1.31-2.89-3.21-3.03
		c-1.76-0.13-2.7,0.87-3.27,2.37c-1.21,3.14-1.65,6.35-0.35,9.5c0.41,0.98,3.46,3.91,5.18,0.45
		C197.61,255.72,198.49,250.86,198.34,250.83z"/>
	<path class="st0" d="M271.94,256.16c2.16-0.56,5.12-1.74,6.92-2.28c1.35-0.4,1.71,0.21,1.61,1.33c-0.22,2.42-0.34,4.87-0.82,7.24
		c-0.3,1.64-8.18,3.31-10.79,3.97c-1.3,0.33-2.47-0.36-3.03-1.68c-3-7.1-2.32-20.59-1.51-28.3c0.05-0.44,0.19-1.1,0.55-1.27
		c12.64-6.09,11.11-2.19,11.11-2.19S272.52,250.74,271.94,256.16z"/>
	<path class="st0" d="M250.47,264.96c-0.14,0.89-0.25,1.8-0.44,2.68c-0.55,2.49-1.16,3.02-3.64,2.43c-1.47-0.35-2.92-1.1-4.15-1.98
		c-0.54-0.39-0.69-1.58-0.67-2.39c0.23-8.78,2.84-17.03,5.84-25.2c1.39-3.8,2.61-7.26,4-11.54c1.07-2.53,6.21,0.25,8.81,2.13
		c1.33,0.97,1.44,2.55,1.47,3.91c0.12,5.24-0.07,10.48-0.07,15.72c0,5.45,0.13,10.9,0.11,16.34c-0.03,6-0.23,6.7-7.29,6.35
		c-0.56-0.03-1.11-0.23-1.67-0.34c-1.69-0.32-2.48-1.08-1.81-2.92c0.45-1.24,0.66-2.58,0.79-3.89
		C252.06,265,250.52,264.41,250.47,264.96z M253.87,259.31c0.13-2.44,0.21-4.16,0.3-5.88c-0.32-0.09-2.18,2.75-2.58,4.32
		C251.54,257.98,252.69,258.52,253.87,259.31z"/>
</g>
<g>
	<path class="st0" d="M250.11,142.88L250.11,142.88c-1.12-3.61-3.8-6.36-6.99-7.18c-1.19-0.31-2.46-0.33-3.67-0.06
		c-0.58,0.13-1.15,0.33-1.86,0.65c-0.11,0.05-0.22,0.1-0.32,0.15c-0.38,0.18-0.5,0.23-0.62,0.21c-0.27-0.04-0.52-0.33-0.69-0.63
		c-0.14-0.5-0.19-1.07-0.15-1.62c0.15-2.31,1.03-4.44,2.68-6.5c0.73-0.91,1.17-0.79,1.33-0.75c0.68,0.19,0.81,0.79,0.82,1.13
		c0.04,0.98,0,2.01-0.05,3.1c-0.02,0.51-0.04,1.04-0.06,1.59l-0.03,1.08l1.05,0.23c0.39,0.09,0.92,0.2,1.51,0.34
		c1.03,0.23,2.23,0.5,3.17,0.7c1.65,0.34,2.84,0.58,3.16-0.71c0.61-2.49,1.18-5.35,0.1-7.92c-0.75-1.78-2.04-3.31-3.93-4.66
		c-2.49-1.78-4.86-2.66-7.25-2.71c-3.12-0.04-5.87,1.27-7.88,3.85c-3.78,4.84-4.83,9.75-3.2,15c1.12,3.61,3.8,6.36,7,7.18
		c1.03,0.26,2.07,0.31,3.11,0.16c0.54-0.08,1.08-0.22,1.62-0.42c0.05-0.02,0.13-0.05,0.25-0.11c1.2-0.55,1.55-0.44,1.58-0.43
		c0.24,0.11,0.86,0.39,0.75,2.09c-0.15,2.31-1.03,4.43-2.68,6.5c-0.73,0.91-1.17,0.79-1.33,0.75c-0.68-0.19-0.81-0.79-0.82-1.13
		c-0.04-0.99,0-2.01,0.05-3.1c0.02-0.51,0.04-1.04,0.06-1.59l0.03-1.07l-1.05-0.23c-0.39-0.08-0.91-0.2-1.48-0.33
		c-1.03-0.23-2.23-0.5-3.19-0.7c-1.72-0.35-2.85-0.59-3.17,0.71c-0.61,2.49-1.18,5.35-0.1,7.92c0.75,1.78,2.04,3.31,3.93,4.66
		c2.49,1.78,4.86,2.66,7.25,2.71c0.07,0,0.14,0,0.22,0c3.05,0,5.7-1.33,7.67-3.85C250.68,153.04,251.73,148.14,250.11,142.88z"/>
	<path class="st0" d="M153.24,120.15c0.55,0.62,0.68,1.65,0.71,2.53c0.07,1.72-0.27,10.01-0.26,12.24l3.49,0.38
		c0,0,0.52-13.85,0.68-16.95c0.39-2.2,9.11,0.47,9.11,0.47s-0.87,35.57-0.78,40.35c-0.31,1.03-6.49,0.28-7.19,0.18
		c-0.19-0.03-0.39-0.02-0.58-0.07c-1.29-0.34-0.9-2.45-0.91-3.48c-0.04-2.91-0.08-4.65-0.12-7.56c-0.02-1.65-0.05-3.3-0.07-4.95
		l-3.32,0.28c0.11,2.03,0.23,4.05,0.34,6.08c0.18,3.17,0.25,5.19,0.61,8.35c0.02,0.18,0.04,0.37-0.05,0.52
		c-0.09,0.16-0.27,0.25-0.45,0.31c-1.9,0.71-9.94-0.04-10.28-0.34c-0.2-0.18-0.26-0.46-0.24-0.73c0.03-0.4,0.15-1.66,0.15-2.17
		c-0.03-2.19-0.06-4.38-0.09-6.58c-0.04-2.74-0.07-5.48-0.11-8.22c-0.04-2.89-0.08-5.77-0.12-8.66c-0.04-2.62-0.08-5.25-0.12-7.87
		c-0.03-1.96,0.09,0.41,0.05-1.55c-0.01-0.52-0.01-1.01,0.09-1.52c0.03-0.15,0.06-0.3,0.16-0.42c0.1-0.12,0.24-0.19,0.38-0.25
		c2.13-0.88,4.9-0.96,7.18-0.96c0.41,0,0.83,0.02,1.2,0.18C152.91,119.84,153.09,119.98,153.24,120.15z"/>
	<path class="st0" d="M184.74,115.17c1.21-1.08,6.56-1.8,10.98-1.9c6.47,0.43,15.61,0.96,16.3,3.93c0.72,3.08-0.66,8.6-3.13,8.29
		c-2.4-0.3-4.54-0.35-7.37-0.89c1.22,7.03-0.23,37.69-0.23,37.69s-0.07,5.41-10.65-1.64c-1.38-0.92,1.55-26.22,1.76-34.96
		c-0.07-0.31,0.05-1.53,0.06-1.74c-2.87,0.11-5.38,0.86-7.76,1.03C182.9,125.12,182.34,117.32,184.74,115.17z"/>
	<path class="st0" d="M142.07,131.1c-1.42-12.6-9.95-18.86-16.48-19.61c-3.19-0.37-6.5-0.17-9.76-0.03
		c-1.83-0.05-3.32,0.2-3.43,1.14c0.06,3.48,1.76,34.17,1.91,36.01c0.27,3.25,0.54,7.67,0.8,10.92c0.09,1.15-0.19,3.54,1.3,3.82
		c0.22,0.04,0.44,0.02,0.66,0.04c0.8,0.05,7.84,0.43,8.12-0.74c-0.16-1.79-0.48-9.08-0.85-16.41c2.26-0.64,4.49-1.34,6.64-2.14
		C138.71,141.19,142.35,136.33,142.07,131.1z M124.32,136.71c-0.29-2.97-0.58-5.94-0.87-8.91c-0.05-1.05-0.1-2.08-0.14-3.07
		c4.26-0.1,7.32,1.8,7.84,4.63C131.83,133.03,128.54,136.48,124.32,136.71z"/>
	<path class="st0" d="M168.42,146.43c-0.37-4.82-0.59-9.7,1.47-14.51c2.09-4.86,6-6.6,8.91-6.36c4.33,0.35,7.68,3.3,8.91,7.79
		c2.21,8.06,1.29,15.99-1.42,23.78c-1.06,3.05-3.59,4.92-6.81,5.42c-3.15,0.49-5.43-1.13-7.17-3.61
		C169.69,155.2,168.99,150.91,168.42,146.43z M183.01,144.41c-0.08-0.72-0.04-1.48-0.26-2.15c-0.52-1.64-1.61-2.77-3.52-2.72
		c-1.76,0.05-2.58,1.16-2.99,2.74c-0.86,3.3-0.96,6.58,0.69,9.62c0.51,0.94,3.86,3.58,5.19-0.1
		C182.81,149.41,183.16,144.42,183.01,144.41z"/>
	<path class="st0" d="M205.28,148.3c-0.37-4.82-0.59-9.7,1.47-14.51c2.09-4.86,6-6.6,8.91-6.36c4.33,0.35,7.68,3.3,8.91,7.79
		c2.21,8.06,1.29,15.99-1.42,23.78c-1.06,3.05-3.59,4.92-6.81,5.42c-3.15,0.49-5.43-1.13-7.17-3.61
		C206.56,157.07,205.85,152.79,205.28,148.3z M219.87,146.28c-0.08-0.72-0.04-1.48-0.26-2.15c-0.52-1.64-1.61-2.77-3.52-2.72
		c-1.76,0.05-2.58,1.16-2.99,2.74c-0.86,3.3-0.96,6.58,0.69,9.62c0.51,0.94,3.86,3.58,5.19-0.1
		C219.67,151.29,220.02,146.3,219.87,146.28z"/>
</g>
<g>
	<path class="st0" d="M140.21,10.71c0,0,1.41-5.85-11.66,0.25c-1.67,0.78-1.7,22.05-2.73,32.64c-0.1-0.27-0.2-0.5-0.28-0.6
		c-3.73-9.34-9.73-31.8-11.63-32.13c-14.21-2.5-11.33,2.79-11.33,2.79s7.63,20.9,12.56,30.79c1.57,3.25,6.45,13.78,8.21,15.16
		c1.65,0.57,8.52,1.26,9.81-2.01C134.49,54.21,140.21,10.71,140.21,10.71z"/>
	<path class="st0" d="M149.04,29.63c-1.69,5.64-2.91,18.9-4.52,24.04c-0.5,1.15-6.59,1-6.46-0.14c0.97-4.57,1.44-21.57,2.54-22.12
		C143.37,30,149.02,28.92,149.04,29.63z"/>
	<path class="st0" d="M143.82,27.86c-3.47-0.4-4.67-2.18-3.74-4.68c0.87-2.36,2.6-3.96,5.07-4.6c1.68-0.44,3.26-0.18,4.35,1.38
		c0.9,1.3,0.7,3.95-0.6,5.39C147.37,27.05,146.43,28.08,143.82,27.86z"/>
	<path class="st0" d="M191.21,31.17c-1.46-0.41-2.41-0.67-3.34-0.95c-3.58-1.1-4.28-0.57-4.34,3.27c0.1,0.98,4.53,0.34,4.97,1.05
		c0.66,1.08,0.17,5.96-0.65,5.87c-1.3-0.05-2.7-0.49-4.29-0.18c-0.56-0.02-0.08,4.98,0.89,4.89c1.49-0.39,3.11-0.7,4.65-1.23
		c1.61-0.55,2.59-0.18,2.65,1.54c0.08,2.38,0.08,4.77-0.07,7.15c-0.04,0.55-0.72,1.35-1.28,1.54c-4.07,1.35-12.92-0.47-12.81-3.5
		c-0.34-6.28-0.77-12.57-0.76-18.86c0.01-5.07-0.28-12.34,1.3-13.18c3.65-1.71,9.1-0.5,13.07,1.92
		C193.18,21.31,191.91,31.51,191.21,31.17z"/>
	<path class="st0" d="M237.66,38.2L237.66,38.2c-0.98-3.11-3.32-5.48-6.13-6.19c-1.04-0.26-2.15-0.28-3.21-0.05
		c-0.5,0.11-1.01,0.28-1.63,0.56c-0.1,0.04-0.19,0.09-0.28,0.13c-0.33,0.16-0.43,0.2-0.55,0.18c-0.23-0.04-0.46-0.29-0.61-0.54
		c-0.12-0.43-0.17-0.92-0.14-1.4c0.13-1.99,0.9-3.82,2.34-5.6c0.64-0.78,1.02-0.68,1.17-0.64c0.6,0.16,0.71,0.68,0.72,0.97
		c0.04,0.85,0,1.74-0.04,2.67c-0.02,0.44-0.04,0.9-0.05,1.37l-0.03,0.93l0.92,0.2c0.34,0.07,0.81,0.18,1.32,0.29
		c0.9,0.2,1.95,0.43,2.78,0.6c1.44,0.29,2.49,0.5,2.77-0.61c0.54-2.14,1.03-4.62,0.08-6.83c-0.66-1.54-1.78-2.85-3.44-4.02
		c-2.18-1.53-4.25-2.3-6.35-2.34c-2.73-0.03-5.14,1.09-6.9,3.32c-3.31,4.17-4.23,8.4-2.81,12.94c0.98,3.11,3.33,5.48,6.13,6.19
		c0.9,0.23,1.82,0.27,2.73,0.14c0.47-0.07,0.95-0.19,1.41-0.36c0.04-0.02,0.12-0.05,0.22-0.09c1.05-0.48,1.36-0.38,1.39-0.37
		c0.21,0.09,0.75,0.34,0.65,1.8c-0.13,1.99-0.9,3.82-2.34,5.6c-0.64,0.79-1.02,0.68-1.17,0.64c-0.6-0.16-0.71-0.68-0.72-0.97
		c-0.04-0.85,0-1.74,0.04-2.67c0.02-0.44,0.04-0.9,0.05-1.37l0.03-0.93l-0.92-0.2c-0.34-0.07-0.79-0.17-1.3-0.28
		c-0.9-0.2-1.96-0.43-2.79-0.6c-1.5-0.3-2.5-0.51-2.78,0.61c-0.54,2.14-1.03,4.61-0.09,6.83c0.66,1.54,1.78,2.85,3.45,4.02
		c2.18,1.53,4.26,2.3,6.35,2.34c0.06,0,0.13,0,0.19,0c2.67,0,4.99-1.15,6.72-3.32C238.16,46.96,239.08,42.73,237.66,38.2z"/>
	<path class="st0" d="M175.25,40.71c-0.65,6.3-4.74,11.68-12.15,14.24c-3.58,1.23-7.31,2.1-11.04,2.76
		c-2.13,0.38-2.56-0.39-2.41-2.58c0.76-11.17,2.26-36.91,2.38-38.6c0.09-1.24,0.46-2.61,2.03-2.49c3.29,0.27,6.68,0.34,9.81,1.26
		C169.57,16.98,176.14,25.46,175.25,40.71z M158.4,45.34c3.82,0.22,7.35-3.53,7.37-7.99c0.01-3.49-2.45-6.16-6.37-6.48
		C159.07,35.7,158.73,40.52,158.4,45.34z"/>
	<path class="st0" d="M193.09,46.23c-1.79-7.58-0.74-13.92,2.99-19.69c3.9-6.02,12.62-5.87,16.24,0.29
		c3.52,6.01,4.8,12.59,2.9,19.39c-1.24,4.44-4.93,6.85-9.16,7.86c-4.06,0.97-8,0.07-10.73-3.44
		C194.17,49.15,193.58,47.23,193.09,46.23z M199.18,41.35c0.57,2,2.18,2.71,4,1.85c2.84-1.34,3.85-4.99,2.46-8.9
		c-1.01-2.85-3.14-3.27-5.07-0.9C198.62,35.8,198.72,38.62,199.18,41.35z"/>
</g>
<g>
	<g>
		<path class="st0" d="M100.92,350.58L100.92,350.58c-1.24-4.09-4.25-7.22-7.87-8.18c-1.35-0.35-2.78-0.39-4.15-0.09
			c-0.65,0.14-1.3,0.36-2.11,0.72c-0.13,0.06-0.25,0.11-0.37,0.17c-0.43,0.2-0.56,0.26-0.71,0.24c-0.3-0.05-0.59-0.38-0.78-0.71
			c-0.15-0.56-0.21-1.21-0.16-1.84c0.19-2.61,1.2-5.01,3.08-7.34c0.83-1.03,1.33-0.89,1.52-0.83c0.77,0.22,0.91,0.89,0.92,1.28
			c0.04,1.11-0.02,2.28-0.08,3.51c-0.03,0.58-0.06,1.18-0.08,1.8l-0.04,1.22l1.19,0.26c0.44,0.1,1.04,0.24,1.7,0.39
			c1.16,0.27,2.52,0.58,3.59,0.81c1.86,0.4,3.21,0.68,3.58-0.78c0.71-2.81,1.37-6.05,0.17-8.97c-0.84-2.02-2.28-3.76-4.42-5.3
			c-2.8-2.03-5.48-3.05-8.18-3.12c-3.53-0.06-6.65,1.39-8.95,4.3c-4.31,5.45-5.53,11-3.73,16.96c1.24,4.09,4.25,7.23,7.87,8.18
			c1.16,0.3,2.35,0.37,3.52,0.2c0.61-0.09,1.23-0.24,1.83-0.46c0.05-0.02,0.15-0.06,0.29-0.12c1.36-0.62,1.76-0.49,1.8-0.47
			c0.27,0.12,0.97,0.45,0.83,2.37c-0.19,2.61-1.2,5.01-3.08,7.34c-0.83,1.03-1.33,0.89-1.52,0.84c-0.77-0.22-0.91-0.89-0.92-1.28
			c-0.04-1.12,0.02-2.28,0.08-3.51c0.03-0.58,0.06-1.18,0.08-1.8l0.04-1.22l-1.19-0.27c-0.44-0.1-1.02-0.23-1.67-0.38
			c-1.16-0.27-2.53-0.59-3.6-0.81c-1.94-0.41-3.23-0.69-3.6,0.78c-0.71,2.81-1.37,6.05-0.17,8.97c0.84,2.02,2.28,3.76,4.42,5.3
			c2.8,2.03,5.48,3.05,8.18,3.12c0.08,0,0.16,0,0.24,0c3.45,0.02,6.46-1.46,8.71-4.31C101.49,362.09,102.72,356.54,100.92,350.58z"
			/>
		<path class="st0" d="M102.96,347.6c0.18-4.83,0.51-9.71,3.11-14.25c2.63-4.59,6.71-5.88,9.57-5.31c4.26,0.84,7.25,4.15,7.97,8.75
			c1.29,8.26-0.53,16.03-4.11,23.47c-1.4,2.91-4.12,4.48-7.38,4.61c-3.18,0.13-5.27-1.74-6.71-4.4
			C103.23,356.46,103.02,352.12,102.96,347.6z M117.69,347.24c0-0.72,0.13-1.47-0.01-2.17c-0.33-1.69-1.28-2.94-3.19-3.1
			c-1.76-0.15-2.7,0.86-3.28,2.38c-1.23,3.18-1.69,6.43-0.41,9.64c0.4,0.99,3.43,3.99,5.17,0.49
			C116.92,352.2,117.83,347.28,117.69,347.24z"/>
	</g>
	<path class="st0" d="M132.77,356.83c0.14,2.38,0.32,4.77,0.42,7.16c0.11,2.44-0.84,3.3-3.33,3.12c-4.7-0.34-5-0.57-5.04-5.12
		c-0.07-8.03,0.67-29.06,1.13-31.53c0.09-0.47,0.61-1.16,1.02-1.22c1.93-0.29,3.9-0.57,5.84-0.51c1.77,0.06,2.39,1.55,2.72,3.05
		c0.99,4.59,4.13,16.55,4.3,16.54c0.44-4.11,0.91-8.22,1.3-12.34c0.21-2.22,0.28-4.45,0.4-6.67c0.07-1.36,0.75-2.24,2.11-2.44
		c2-0.29,4.01-0.61,6.02-0.68c2.45-0.08,3.49,0.85,3.36,3.24c-0.2,3.79-0.4,7.62-1.11,11.34c-1.41,7.36-3.26,14.63-4.76,21.98
		c-0.65,3.16-2.52,4.6-5.6,4.88c-0.24,0.02-0.47,0.08-0.71,0.11c-3.74,0.49-3.94,0.42-5.16-3.1
		C134.79,362.05,132.93,356.81,132.77,356.83z"/>
	<path class="st0" d="M176.22,346.82c-0.98-2.87-1.69-5.38-2.69-7.77c-0.74-1.76-2.31-2.85-4.25-2.68c-2,0.18-3.05,1.79-3.62,3.52
		c-1.45,4.41-1.79,8.91-0.45,13.41c0.36,1.21,0.95,2.42,1.71,3.42c3.9,3.53,6.73-0.51,6.73-0.51l-2.51,0.18l-0.46-6.34l16.56-1.67
		l2.25,18.61l-9.82,1.67l-0.72-4.36c0,0-0.11,0.47-0.39,0.84c-6.32,6.92-15.98,3.93-21.03-2.65c-5.67-7.38-6.19-15.46-3.45-24.07
		c1.58-4.96,4.87-8.3,9.85-9.76c2.58-0.75,5.33-0.78,7.98-0.33c4.33,0.73,8.32,2.1,11.26,5.22c2.83,3.02,3.55,7.63,3.99,11.56
		C187.19,345.41,179.3,346.38,176.22,346.82z"/>
	<g>
		<path class="st0" d="M238.33,339.4c-1.05,5.88-4.22,19.99-5.25,25.37c-0.37,1.22-6.54,1.76-6.54,0.59
			c0.45-4.73,2.42-22.52,3.47-23.21C232.65,340.42,238.23,338.68,238.33,339.4z"/>
		<path class="st0" d="M232.18,338.32c-3.55-0.01-4.97-1.67-4.32-4.31c0.61-2.48,2.17-4.29,4.59-5.22c1.65-0.63,3.28-0.55,4.55,0.9
			c1.06,1.21,1.16,3.91,0.02,5.52C235.67,337.1,234.83,338.24,232.18,338.32z"/>
	</g>
	<path class="st0" d="M214.69,354.56c2.92-0.75,6.93-2.35,9.36-3.08c1.82-0.55,2.31,0.29,2.18,1.8c-0.29,3.28-0.46,6.59-1.12,9.8
		c-0.4,2.22-11.07,4.48-14.61,5.38c-1.76,0.44-3.35-0.48-4.1-2.27c-4.06-9.61-3.13-27.87-2.05-38.31c0.06-0.6,0.26-1.48,0.74-1.71
		c17.11-8.24,15.04-2.96,15.04-2.96S215.47,347.22,214.69,354.56z"/>
	<path class="st0" d="M261.1,349.4L261.1,349.4c-0.77-3.41-3.05-6.15-5.95-7.14c-1.08-0.37-2.25-0.48-3.38-0.32
		c-0.54,0.08-1.08,0.22-1.76,0.47c-0.11,0.04-0.21,0.08-0.31,0.12c-0.36,0.14-0.47,0.18-0.59,0.15c-0.24-0.06-0.46-0.35-0.6-0.63
		c-0.09-0.47-0.1-1-0.03-1.51c0.31-2.12,1.27-4.02,2.94-5.81c0.74-0.79,1.14-0.65,1.29-0.59c0.62,0.22,0.69,0.78,0.68,1.1
		c-0.03,0.91-0.15,1.86-0.27,2.86c-0.06,0.47-0.12,0.96-0.17,1.46l-0.11,0.99l0.95,0.29c0.36,0.11,0.84,0.26,1.37,0.42
		c0.93,0.29,2.02,0.62,2.88,0.87c1.5,0.43,2.58,0.74,2.97-0.43c0.75-2.25,1.48-4.86,0.66-7.32c-0.57-1.7-1.64-3.2-3.3-4.59
		c-2.17-1.82-4.3-2.81-6.5-3.03c-2.88-0.26-5.51,0.75-7.56,2.99c-3.84,4.2-5.16,8.66-4.04,13.63c0.77,3.42,3.05,6.15,5.95,7.14
		c0.93,0.32,1.89,0.44,2.87,0.37c0.5-0.04,1.02-0.13,1.52-0.27c0.04-0.01,0.13-0.04,0.24-0.08c1.14-0.43,1.46-0.3,1.49-0.28
		c0.21,0.12,0.77,0.43,0.54,1.99c-0.31,2.12-1.27,4.02-2.94,5.81c-0.74,0.79-1.14,0.65-1.29,0.59c-0.62-0.22-0.69-0.78-0.68-1.1
		c0.03-0.91,0.15-1.86,0.27-2.86c0.06-0.47,0.12-0.96,0.17-1.46l0.11-0.99l-0.95-0.29c-0.35-0.11-0.82-0.25-1.34-0.41
		c-0.93-0.29-2.03-0.63-2.89-0.88c-1.56-0.45-2.59-0.75-2.98,0.43c-0.75,2.25-1.48,4.86-0.66,7.31c0.57,1.7,1.64,3.2,3.3,4.59
		c2.17,1.82,4.3,2.81,6.5,3.03c0.07,0.01,0.13,0.01,0.2,0.02c2.82,0.22,5.36-0.82,7.36-3.01C260.9,358.83,262.23,354.37,261.1,349.4
		z"/>
	<path class="st0" d="M264.43,326.82c1.08-1.06,3.9-0.76,7.63-0.79c5.43,0.54,13.12,1.23,13.55,4.2c0.45,3.09-1,8.56-3.07,8.21
		c-2.01-0.34-2.83-0.39-5.18-0.98c0.67,7.03-1.65,30.31-1.65,30.31s-0.45,5.36-9.89-1.86c-1.15-0.88,2.18-18.85,2.8-27.56
		c-0.04-0.31,0.12-1.52,0.14-1.73c-2.42,0.06-2.85-0.16-4.86-0.03C262.37,336.7,262.3,328.92,264.43,326.82z"/>
</g>
<g>
	<g>
		<path class="st0" d="M258.79-55.85L258.79-55.85c-1.2-3.89-4.1-6.86-7.55-7.75c-1.28-0.33-2.65-0.35-3.96-0.06
			c-0.62,0.14-1.24,0.35-2.01,0.7c-0.12,0.05-0.24,0.11-0.35,0.17c-0.41,0.2-0.54,0.25-0.67,0.23c-0.29-0.04-0.57-0.36-0.75-0.68
			c-0.15-0.54-0.21-1.15-0.17-1.75c0.17-2.49,1.11-4.79,2.89-7.02c0.79-0.98,1.26-0.85,1.44-0.8c0.74,0.2,0.87,0.85,0.89,1.22
			c0.04,1.06,0,2.17-0.05,3.35c-0.02,0.55-0.05,1.12-0.06,1.72l-0.03,1.16l1.13,0.24c0.42,0.09,1,0.22,1.63,0.36
			c1.11,0.25,2.4,0.54,3.42,0.75c1.78,0.37,3.07,0.63,3.41-0.77c0.66-2.68,1.27-5.78,0.1-8.55c-0.81-1.92-2.2-3.57-4.25-5.03
			c-2.68-1.92-5.24-2.87-7.82-2.93c-3.37-0.04-6.33,1.37-8.51,4.16c-4.08,5.23-5.21,10.52-3.46,16.2c1.2,3.9,4.1,6.87,7.56,7.75
			c1.11,0.28,2.24,0.34,3.36,0.17c0.58-0.09,1.17-0.24,1.74-0.45c0.05-0.02,0.14-0.06,0.27-0.12c1.29-0.6,1.67-0.48,1.71-0.46
			c0.25,0.12,0.93,0.42,0.81,2.26c-0.17,2.49-1.11,4.79-2.89,7.02c-0.79,0.98-1.26,0.85-1.44,0.81c-0.74-0.2-0.87-0.85-0.89-1.21
			c-0.04-1.06,0-2.17,0.05-3.35c0.02-0.55,0.05-1.12,0.06-1.72l0.03-1.16l-1.13-0.25c-0.42-0.09-0.98-0.22-1.6-0.36
			c-1.11-0.25-2.41-0.54-3.44-0.75c-1.85-0.38-3.08-0.64-3.43,0.77c-0.66,2.68-1.27,5.78-0.11,8.55c0.81,1.92,2.2,3.57,4.25,5.03
			c2.69,1.92,5.25,2.87,7.82,2.93c0.08,0,0.15,0,0.23,0c3.29,0,6.15-1.43,8.28-4.16C259.41-44.88,260.54-50.17,258.79-55.85z"/>
		<path class="st0" d="M357.63-56.08L357.63-56.08c-0.76-3.25-2.94-5.84-5.71-6.77c-1.03-0.34-2.15-0.44-3.23-0.28
			c-0.52,0.08-1.03,0.22-1.68,0.45c-0.1,0.04-0.2,0.08-0.3,0.11c-0.34,0.14-0.45,0.17-0.56,0.15c-0.23-0.05-0.44-0.33-0.57-0.6
			c-0.09-0.45-0.1-0.95-0.03-1.44c0.28-2.03,1.19-3.84,2.77-5.56c0.7-0.76,1.08-0.62,1.22-0.57c0.59,0.21,0.66,0.74,0.65,1.04
			c-0.03,0.87-0.13,1.77-0.24,2.73c-0.05,0.45-0.1,0.91-0.15,1.4l-0.09,0.95l0.91,0.27c0.34,0.1,0.8,0.24,1.31,0.39
			c0.89,0.27,1.93,0.58,2.75,0.81c1.43,0.4,2.47,0.69,2.83-0.43c0.7-2.15,1.38-4.64,0.59-6.98c-0.55-1.62-1.59-3.04-3.17-4.35
			c-2.08-1.72-4.11-2.65-6.22-2.85c-2.75-0.23-5.25,0.75-7.19,2.9c-3.64,4.03-4.87,8.29-3.77,13.02c0.76,3.25,2.95,5.85,5.72,6.77
			c0.89,0.3,1.81,0.41,2.74,0.33c0.48-0.04,0.97-0.13,1.45-0.27c0.04-0.01,0.12-0.04,0.23-0.08c1.09-0.41,1.39-0.29,1.42-0.28
			c0.2,0.11,0.73,0.4,0.53,1.89c-0.28,2.03-1.19,3.84-2.77,5.56c-0.7,0.76-1.08,0.62-1.22,0.57c-0.59-0.21-0.66-0.74-0.65-1.04
			c0.03-0.87,0.13-1.77,0.24-2.73c0.05-0.45,0.1-0.91,0.15-1.4l0.09-0.95l-0.91-0.27c-0.34-0.1-0.79-0.23-1.28-0.38
			c-0.89-0.27-1.94-0.58-2.76-0.82c-1.49-0.42-2.48-0.7-2.84,0.43c-0.7,2.15-1.38,4.64-0.59,6.98c0.55,1.62,1.59,3.04,3.17,4.36
			c2.08,1.72,4.12,2.65,6.22,2.85c0.06,0.01,0.13,0.01,0.19,0.02c2.69,0.19,5.11-0.81,7-2.91
			C357.49-47.08,358.73-51.34,357.63-56.08z"/>
		<path class="st0" d="M268.61-76.04c0.52,0.51,0.69,1.39,0.77,2.16c0.16,1.49,0.49,10.77,0.63,12.71l3.06,0.12
			c0,0-0.5-14.12-0.54-16.84c0.21-1.93,7.95-0.12,7.95-0.12s1.53,34.07,1.89,38.22c-0.21,0.91-5.63,0.62-6.25,0.58
			c-0.17-0.01-0.34,0-0.51-0.03c-1.14-0.22-0.92-2.08-1-2.98c-0.21-2.53-0.41-5.06-0.62-7.6c-0.12-1.43-0.23-2.87-0.35-4.3
			l-2.88,0.44c0.22,1.76,0.44,3.51,0.65,5.27c0.34,2.75,0.59,5.53,1.09,8.25c0.03,0.15,0.05,0.32-0.01,0.46
			c-0.07,0.15-0.22,0.23-0.37,0.3c-1.61,0.73-8.65,0.55-8.96,0.3c-0.18-0.14-0.25-0.39-0.25-0.62c0-0.35-0.03-2.47-0.07-2.92
			c-0.15-1.91-0.31-3.81-0.46-5.72c-0.19-2.38-0.39-4.77-0.58-7.15c-0.2-2.51-0.41-5.02-0.62-7.52c-0.19-2.28-0.38-4.56-0.57-6.84
			c-0.14-1.7-0.03-1.69-0.18-3.39c-0.04-0.45-0.06-0.88-0.01-1.33c0.02-0.13,0.04-0.26,0.11-0.37c0.08-0.11,0.2-0.18,0.32-0.24
			c1.8-0.89,4.21-1.13,6.19-1.25c0.36-0.02,0.72-0.04,1.06,0.09C268.31-76.29,268.47-76.18,268.61-76.04z"/>
		<path class="st0" d="M283.02-58.84c0.14-4.61,0.43-9.26,2.87-13.6c2.48-4.4,6.36-5.64,9.09-5.12c4.07,0.78,6.94,3.91,7.65,8.29
			c1.28,7.87-0.41,15.29-3.77,22.4c-1.32,2.79-3.9,4.29-7.01,4.44c-3.04,0.14-5.04-1.63-6.43-4.15
			C283.34-50.4,283.11-54.53,283.02-58.84z M297.06-59.27c0-0.69,0.11-1.4-0.02-2.07c-0.33-1.61-1.24-2.79-3.06-2.93
			c-1.68-0.13-2.57,0.84-3.12,2.29c-1.15,3.04-1.58,6.14-0.33,9.19c0.39,0.95,3.3,3.78,4.93,0.43
			C296.37-54.55,297.2-59.24,297.06-59.27z"/>
		<path class="st0" d="M305-41.95c0.3,2.75,5.99,2.58,9,1.5c1.54-0.56,2.1-2.06,2.53-3.37c1.2-3.72,2.24-8.57,3.3-12.34
			c0.47,3.62,0.93,7.25,1.53,10.85c0.23,1.36,0.57,2.92,2.01,3.7c2.82,1.5,8.28,3.56,8.97,0.88c0.76-4.47,4.42-25.56,4.42-35.95
			c0-0.82-0.41-1.98-1-2.3c-1.33-0.71-2.87-1.26-4.36-1.4c-2.51-0.24-3.04,0.38-3.23,2.94c-0.07,0.91-2.18,14.68-2.19,15.59
			c0.04,0.56-1.56,0.19-1.46-1.12c-0.02-0.48-0.35-12.37-1.52-13.19c-1.22-0.87-3.37-0.35-3.58,0.48
			c-0.15-0.01-3.21,10.75-3.38,11.64c-0.09,1.3-1.73,1.44-1.61,0.89c0.12-0.91,0.28-13.59,0.35-14.5c0.19-2.56-0.24-3.25-2.77-3.38
			c-1.5-0.08-3.1,0.24-4.52,0.75c-0.62,0.23-1.11,1.33-1.32,2.13C303.87-69.57,304.9-46.49,305-41.95z"/>
	</g>
	<path class="st0" d="M8.93-77.02c1.81,0.62-1.67,11.56-2.46,17.26c-0.12,0.85-1.3,7.66,2.19,8.11c2.8,0.37,5.1-1.09,5.58-2.49
		c1.04-4.57,0.4-11.25,0.49-15.87c0.05-2.69-0.04-5.39,0.01-8.08c0.06-2.5,0.16-4.79,2.83-4.04c1.48,0.42,3,0.7,4.42,1.26
		c4.01,1.56,4.61,2.66,4.57,6.9c-0.11,9.75-1.49,19.33-3.89,28.77c-2.03,7.97-8.91,12.53-15.86,10.38
		c-4.69-1.45-7.17-5.11-8.41-9.54c-2.54-9.14-2.4-18.47-1.18-27.79c0.16-1.21,1.31-2.57,2.37-3.34C2.28-77.42,5.2-77.98,8.93-77.02z
		"/>
	<path class="st0" d="M52.52-57.38c0.27-10.67-6.12-16.87-11.47-18.25c-2.61-0.68-5.4-0.89-8.13-1.15
		c-1.52-0.25-2.79-0.21-2.99,0.55c-0.36,2.91-2.48,28.68-2.56,30.23c-0.15,2.74-0.44,6.45-0.59,9.19c-0.05,0.97-0.56,2.93,0.64,3.33
		c0.18,0.06,0.37,0.07,0.55,0.11c0.66,0.14,6.48,1.26,6.85,0.32c0.08-1.51,0.64-7.62,1.18-13.77c1.96-0.27,3.9-0.6,5.79-1.02
		C48.56-49.36,52.14-52.99,52.52-57.38z M37.08-54.76c0.1-2.51,0.2-5.02,0.3-7.52c0.08-0.88,0.16-1.74,0.23-2.57
		c3.56,0.4,5.89,2.34,6,4.76C43.76-56.96,40.62-54.46,37.08-54.76z"/>
	<path class="st0" d="M74.71-60.97c-1.06-2.64-1.29-3.3-2.34-5.48c-0.78-1.61-2.26-2.52-4.01-2.21c-1.79,0.32-2.65,1.93-3.06,3.61
		c-1.04,4.28-1.06,8.56,0.42,12.72c0.4,1.11,1.01,2.22,1.76,3.1c6.03,6.17,7.32-5.87,7.32-5.87l9.6-2.1c0,0,0.89,11.67-5.36,15.64
		c-7.3,4.46-14.73,4.34-19.7-1.49c-5.58-6.54-6.55-14.14-4.61-22.5c1.06-4.54,3.58-7.84,7.56-9.67c3.45-1.59,7.16-1.56,10.85-0.84
		c2.84,0.55,5.46,1.62,7.59,3.67c2.75,2.64,3.11,5.28,3.75,8.96C84.54-63.14,77.46-61.62,74.71-60.97z"/>
	<path class="st0" d="M162.74-49.93c0.13,2.16,0.29,4.32,0.38,6.48c0.1,2.21-0.76,2.99-3.01,2.82c-4.25-0.31-4.53-0.52-4.56-4.63
		c-0.06-7.27,0.6-26.31,1.03-28.54c0.08-0.43,0.55-1.05,0.92-1.11c1.75-0.26,3.53-0.52,5.29-0.46c1.6,0.05,2.16,1.4,2.46,2.76
		c0.89,4.15,3.74,14.98,3.89,14.97c0.4-3.72,0.83-7.44,1.18-11.16c0.19-2.01,0.26-4.02,0.36-6.04c0.07-1.23,0.68-2.03,1.91-2.21
		c1.81-0.26,3.63-0.55,5.45-0.61c2.22-0.07,3.16,0.77,3.04,2.94c-0.18,3.43-0.36,6.9-1.01,10.27c-1.28,6.66-2.95,13.25-4.31,19.89
		c-0.59,2.86-2.28,4.16-5.07,4.42c-0.21,0.02-0.43,0.07-0.64,0.1c-3.38,0.44-3.57,0.38-4.67-2.81
		C164.57-45.21,162.88-49.94,162.74-49.93z"/>
	<path class="st0" d="M142.24-74.29c-0.26-2.83-6.22-2.76-9.38-1.7c-1.62,0.55-2.24,2.08-2.7,3.43c-1.32,3.81-2.49,8.78-3.67,12.64
		c-0.43-3.74-0.84-7.48-1.4-11.19c-0.21-1.4-0.54-3.02-2.03-3.85c-2.92-1.6-8.59-3.8-9.36-1.06c-0.87,4.59-6.17,27.84-5.25,36.91
		c0.09,0.84,0.4,2.05,1,2.38c1.38,0.76,2.97,1.34,4.53,1.52c2.62,0.29,3.19-0.34,3.43-2.97c0.08-0.93,2.53-15.07,2.57-16.01
		c-0.03-0.58,1.64-0.16,1.51,1.17c0.01,0.5,0.15,12.73,1.35,13.6c1.26,0.92,3.52,0.42,3.75-0.43c0.16,0.01,3.55-11,3.74-11.92
		c0.12-1.34,1.83-1.45,1.7-0.89c-0.14,0.93-0.53,13.98-0.62,14.91c-0.24,2.63,0.2,3.35,2.83,3.53c1.57,0.11,3.27-0.12,4.74-0.69
		c1.26-0.5,1.42-2.17,1.42-2.17S142.27-69.62,142.24-74.29z"/>
	<path class="st0" d="M154.29-64.36c-1.15,5.28-4.51,17.94-5.63,22.77c-0.38,1.09-5.97,1.36-5.94,0.31
		c0.57-4.26,2.97-20.28,3.94-20.87C149.12-63.63,154.22-65.01,154.29-64.36z"/>
	<path class="st0" d="M148.76-65.55c-3.21-0.14-4.44-1.68-3.76-4.04c0.63-2.22,2.11-3.81,4.33-4.56c1.51-0.51,2.98-0.39,4.09,0.97
		c0.92,1.14,0.92,3.58-0.17,4.99C151.96-66.53,151.17-65.53,148.76-65.55z"/>
	<path class="st0" d="M202.37-58.74c-0.88-2.6-1.53-4.87-2.43-7.04c-0.67-1.59-2.09-2.58-3.85-2.43c-1.81,0.16-2.76,1.62-3.28,3.19
		c-1.32,3.99-1.62,8.06-0.41,12.14c0.32,1.09,0.86,2.19,1.55,3.09c3.53,3.19,6.09-0.47,6.09-0.47l-2.27,0.16l-0.42-5.74l14.99-1.51
		l2.03,16.85l-8.89,1.51l-0.65-3.95c0,0-0.1,0.43-0.36,0.76c-5.72,6.26-14.47,3.56-19.04-2.39c-5.13-6.68-5.6-13.99-3.12-21.79
		c1.35-4.24,4.07-7.17,8.16-8.59c3.54-1.23,7.23-0.91,10.85,0.08c2.8,0.76,5.32,1.98,7.32,4.11c2.56,2.73,3.21,6.9,3.61,10.46
		C212.3-60.02,205.16-59.14,202.37-58.74z"/>
	<path class="st0" d="M86.63-50.64c-1.68-7.11-0.69-13.07,2.81-18.47c3.66-5.65,11.84-5.51,15.23,0.28
		c3.3,5.64,4.5,11.82,2.72,18.19c-1.16,4.16-4.63,6.42-8.6,7.37c-3.81,0.91-7.51,0.07-10.07-3.23
		C87.64-47.9,87.09-49.71,86.63-50.64z M92.34-55.22c0.53,1.88,2.04,2.54,3.75,1.73c2.67-1.26,3.61-4.68,2.31-8.35
		c-0.95-2.68-2.95-3.07-4.75-0.84C91.81-60.43,91.91-57.79,92.34-55.22z"/>
</g>
<path class="st0" d="M149.42,556.79c-0.26,5.46-1.46,18.63-1.77,23.63c-0.19,1.15-5.65,2.33-5.78,1.27
	c-0.15-4.35-0.43-20.72,0.42-21.47C144.45,558.35,149.25,556.15,149.42,556.79z"/>
<path class="st0" d="M143.79,556.5c-3.18,0.38-4.64-0.96-4.37-3.43c0.26-2.32,1.44-4.14,3.5-5.25c1.4-0.76,2.87-0.87,4.18,0.31
	c1.09,0.98,1.49,3.43,0.66,5.01C146.78,555,146.16,556.13,143.79,556.5z"/>
<path class="st0" d="M101.95,559.3c-1.53-0.26-2.53-0.42-3.52-0.61c-3.78-0.73-4.44-0.1-4.05,3.88c0.1,0.61,4.67-0.16,5.19,0.53
	c0.8,1.05,0.86,6.16,0.01,6.16c-1.33,0.09-2.7,0.18-4.4,0.3c0.5,1.68,0.94,3.18,1.47,4.97c1.47-0.57,3.09-1.08,4.61-1.81
	c1.58-0.76,2.62-0.48,2.88,1.3c0.36,2.46,0.63,4.94,0.75,7.42c0.03,0.58-0.58,1.48-1.13,1.74c-4,1.86-8.09,1.46-12.1,0.03
	c-0.65-0.23-1.24-1.4-1.38-2.21c-1.07-6.47-2.23-12.95-2.95-19.46c-0.57-5.25-1.7-12.76-0.19-13.81c3.52-2.18,9.23-1.55,13.56,0.51
	C102.82,548.86,102.7,559.57,101.95,559.3z"/>
<path class="st0" d="M159.43,573.27c0.17,2.27,0.37,4.53,0.5,6.8c0.14,2.32-0.74,3.15-3.07,3.02c-4.41-0.25-4.69-0.47-4.8-4.79
	c-0.19-7.64,0.18-27.67,0.58-30.02c0.08-0.45,0.56-1.11,0.93-1.18c1.81-0.3,3.64-0.6,5.46-0.57c1.66,0.03,2.26,1.44,2.59,2.86
	c1,4.35,4.12,15.68,4.28,15.67c0.35-3.92,0.73-7.83,1.03-11.76c0.16-2.11,0.2-4.24,0.27-6.35c0.05-1.29,0.67-2.14,1.94-2.35
	c1.87-0.31,3.75-0.64,5.63-0.73c2.3-0.11,3.28,0.75,3.2,3.03c-0.13,3.61-0.25,7.26-0.87,10.81c-1.21,7.02-2.82,13.97-4.12,20.98
	c-0.56,3.01-2.29,4.42-5.17,4.73c-0.22,0.02-0.44,0.08-0.66,0.11c-3.49,0.52-3.69,0.46-4.88-2.87
	C161.4,578.21,159.57,573.25,159.43,573.27z"/>
<path class="st0" d="M104.7,545.1c1.03-0.98,5.69-1.77,9.56-1.98c5.67,0.19,13.69,0.39,14.38,2.97c0.72,2.68-0.33,7.55-2.5,7.35
	c-2.11-0.19-2.96-0.19-5.45-0.58c1.27,6.12,0.77,25.83,0.77,25.83s-0.02,4.72-10.4-1.11c-1.26-0.71,0.72-15.83,0.65-23.48
	c-0.07-0.27,0-1.34,0-1.52c-2.51,0.17-4.68,0.91-6.76,1.12C103.37,553.85,102.67,547.05,104.7,545.1z"/>
<path class="st0" d="M71.93,559.1c-1.11-3.11-1.93-5.83-3.06-8.42c-0.83-1.9-2.56-3.07-4.68-2.84c-2.17,0.23-3.29,2-3.88,3.9
	c-1.5,4.82-1.79,9.73-0.25,14.61c0.41,1.31,1.08,2.62,1.93,3.69c4.3,3.77,7.31-0.68,7.31-0.68l-2.72,0.24l-0.62-6.89l18-2.11
	l2.77,20.22l-10.67,1.99l-0.86-4.74c0,0-0.12,0.52-0.41,0.92c-6.76,7.64-17.33,4.56-22.94-2.51c-6.3-7.94-7.01-16.72-4.18-26.15
	c1.63-5.43,5.15-9.13,10.55-10.8c2.8-0.87,5.78-0.94,8.68-0.5c4.73,0.72,9.1,2.13,12.35,5.49c3.14,3.24,3.99,8.24,4.55,12.51
	C83.85,557.37,75.28,558.56,71.93,559.1z"/>
<g>
	<path class="st0" d="M276.77,561.4c-0.97-2.61-1.18-3.26-2.16-5.43c-0.72-1.59-2.19-2.56-3.97-2.35c-1.83,0.22-2.75,1.72-3.23,3.32
		c-1.22,4.08-1.41,8.22-0.07,12.32c0.36,1.1,0.93,2.2,1.66,3.09c5.86,6.29,7.64-5.28,7.64-5.28l9.79-1.52c0,0,0.45,11.33-6.03,14.84
		c-7.56,3.92-15.07,3.4-19.88-2.5c-5.39-6.63-6.08-14.02-3.79-22c1.24-4.33,3.92-7.38,8.03-8.94c3.56-1.35,7.3-1.13,11-0.23
		c2.86,0.69,5.46,1.86,7.54,3.95c2.68,2.7,2.94,5.27,3.45,8.86C286.8,559.82,279.58,560.91,276.77,561.4z"/>
	<path class="st0" d="M189.15,543.69c1.19-1.14,6.57-2.04,11.03-2.29c6.55,0.22,15.8,0.45,16.6,3.43c0.83,3.09-0.39,8.71-2.89,8.48
		c-2.44-0.22-3.42-0.22-6.29-0.68c1.46,7.06,0.88,29.82,0.88,29.82s-0.03,5.45-12-1.28c-1.46-0.82,0.83-18.27,0.76-27.11
		c-0.08-0.31,0-1.55,0.01-1.76c-2.89,0.2-5.4,1.05-7.8,1.29C187.61,553.79,186.8,545.94,189.15,543.69z"/>
	<path class="st0" d="M210.51,569.82c0.08-4.07,0.3-8.19,2.42-12.05c2.15-3.91,5.57-5.04,7.99-4.61c3.6,0.65,6.17,3.4,6.84,7.26
		c1.2,6.94-0.23,13.52-3.14,19.83c-1.14,2.47-3.41,3.83-6.16,3.99c-2.68,0.15-4.47-1.39-5.72-3.62
		C210.86,577.28,210.62,573.62,210.51,569.82z M222.92,569.31c-0.01-0.61,0.09-1.24-0.04-1.83c-0.3-1.42-1.12-2.46-2.73-2.57
		c-1.48-0.1-2.26,0.76-2.74,2.05c-0.99,2.7-1.34,5.44-0.21,8.13c0.35,0.83,2.95,3.32,4.36,0.34
		C222.34,573.5,223.04,569.34,222.92,569.31z"/>
	<path class="st0" d="M239.74,548.34c1.56,0.51-1.27,9.9-1.86,14.79c-0.09,0.73-1,6.57,1.98,6.9c2.4,0.28,4.34-1,4.74-2.21
		c0.83-3.92,0.19-9.62,0.2-13.57c0.01-2.3-0.11-4.6-0.1-6.9c0.01-2.14,0.07-4.1,2.37-3.49c1.27,0.34,2.57,0.56,3.8,1.01
		c3.45,1.27,3.98,2.21,4,5.84c0.04,8.34-1,16.54-2.93,24.64c-1.62,6.84-7.44,10.83-13.41,9.1c-4.03-1.17-6.2-4.27-7.32-8.04
		c-2.3-7.78-2.31-15.76-1.4-23.74c0.12-1.04,1.08-2.22,1.98-2.89C234.05,548.09,236.54,547.57,239.74,548.34z"/>
	<path class="st0" d="M296.91,546.79c0.54,0.59,0.67,1.57,0.72,2.42c0.1,1.65-0.11,9.6-0.06,11.74l3.35,0.31
		c0,0,0.28-13.29,0.39-16.27c0.34-2.11,8.74,0.31,8.74,0.31s-0.29,34.13-0.13,38.71c-0.29,0.99-6.22,0.37-6.89,0.29
		c-0.19-0.02-0.38-0.02-0.56-0.06c-1.24-0.3-0.9-2.34-0.93-3.32c-0.08-2.79-0.15-4.46-0.23-7.25c-0.05-1.58-0.1-3.16-0.14-4.74
		l-3.18,0.32c0.14,1.94,0.28,3.88,0.42,5.82c0.22,3.04,0.32,4.98,0.71,8c0.02,0.17,0.04,0.35-0.04,0.5
		c-0.08,0.16-0.26,0.24-0.43,0.31c-1.81,0.71-9.53,0.12-9.86-0.17c-0.19-0.17-0.25-0.44-0.24-0.69c0.02-0.39,0.12-1.59,0.11-2.08
		c-0.06-2.1-0.12-4.2-0.19-6.31c-0.08-2.63-0.16-5.26-0.24-7.89c-0.08-2.77-0.17-5.53-0.25-8.3c-0.08-2.52-0.16-5.03-0.24-7.55
		c-0.06-1.88,0.1,0.39,0.03-1.49c-0.02-0.49-0.02-0.97,0.06-1.46c0.02-0.14,0.06-0.29,0.14-0.4c0.09-0.12,0.23-0.18,0.36-0.24
		c2.03-0.88,4.69-1,6.87-1.03c0.39,0,0.8,0,1.16,0.16C296.59,546.5,296.76,546.63,296.91,546.79z"/>
</g>
</svg>
